<?xml version="1.0" standalone="no"?><!DOCTYPE svg PUBLIC "-//W3C//DTD SVG 1.1//EN" "http://www.w3.org/Graphics/SVG/1.1/DTD/svg11.dtd"><svg t="1716967070448" class="icon" viewBox="0 0 1024 1024" version="1.1" xmlns="http://www.w3.org/2000/svg" p-id="67802" xmlns:xlink="http://www.w3.org/1999/xlink" width="200" height="200"><path d="M97.8944 511.7952c0 228.5568 185.1392 413.696 413.696 413.696s413.696-185.1392 413.696-413.696-185.1392-413.696-413.696-413.696c-109.7728 0-214.8352 43.6224-292.4544 121.2416-77.6192 77.4144-121.2416 182.6816-121.2416 292.4544z m0 0" fill="#FBE945" p-id="67803"></path><path d="M804.2496 219.3408L219.3408 804.4544c162.2016 158.1056 421.2736 156.4672 581.2224-3.6864 160.1536-160.1536 161.5872-419.2256 3.6864-581.4272z m0 0" fill="#F2D636" p-id="67804"></path><path d="M210.944 511.7952c0 121.6512 73.3184 231.2192 185.5488 277.9136 112.4352 46.4896 241.664 20.8896 327.68-65.1264s111.8208-215.4496 65.1264-327.68c-46.4896-112.4352-156.2624-185.5488-277.9136-185.5488-165.888-0.4096-300.4416 134.3488-300.4416 300.4416z m0 0" fill="#FBB11B" p-id="67805"></path><path d="M717.824 293.2736c-118.1696-112.0256-303.9232-109.568-419.0208 5.5296-115.0976 115.0976-117.5552 301.056-5.5296 419.0208l424.5504-424.5504z m0 0" fill="#FDC72F" p-id="67806"></path><path d="M709.8368 351.8464c-2.8672 9.8304-64.7168 61.44-94.0032 100.5568-29.2864 39.1168-67.584 106.9056-91.136 161.792-16.9984 39.7312-17.6128 45.056-35.84 54.8864-18.2272 9.8304-53.248 16.7936-60.2112 11.264-6.9632-5.5296-11.6736-36.0448-38.2976-80.896s-42.8032-48.5376-73.5232-70.0416c-14.336-9.8304 27.2384-33.9968 50.9952-38.0928 23.7568-4.3008 44.4416 10.0352 64.1024 30.9248 19.6608 20.8896 33.1776 49.5616 40.3456 50.9952 6.9632 1.4336 21.0944-46.4896 60.6208-103.2192 35.6352-50.9952 94.6176-115.9168 122.6752-124.3136 27.648-8.192 56.9344-3.6864 54.272 6.144z" fill="#FBE945" p-id="67807"></path><path d="M456.2944 554.8032c6.9632 10.0352 12.0832 17.8176 15.7696 18.432 5.9392 1.2288 16.9984-33.5872 44.8512-79.0528l151.552-151.552c23.1424-3.6864 43.8272 0.8192 41.3696 9.0112-2.8672 9.8304-64.7168 61.44-94.0032 100.5568-29.2864 39.1168-67.584 106.9056-91.136 161.792-16.9984 39.7312-17.6128 45.056-35.84 54.8864-18.2272 9.8304-53.248 16.7936-60.2112 11.264-6.144-4.9152-10.6496-29.9008-30.5152-67.1744l58.1632-58.1632z" fill="#F2D636" p-id="67808"></path></svg>