<?xml version="1.0" standalone="no"?><!DOCTYPE svg PUBLIC "-//W3C//DTD SVG 1.1//EN" "http://www.w3.org/Graphics/SVG/1.1/DTD/svg11.dtd"><svg t="1729266490461" class="icon" viewBox="0 0 1024 1024" version="1.1" xmlns="http://www.w3.org/2000/svg" p-id="8715" xmlns:xlink="http://www.w3.org/1999/xlink" width="200" height="200"><path d="M975.957333 222.336c-29.653333-12.885333-61.653333-3.968-87.253333 20.864l-97.450667 98.346667v-60.586667C791.253333 202.496 717.098667 128 636.245333 128H145.152C64.256 128 0 202.496 0 280.96v476.672C0 836.096 64.298667 896 145.109333 896h491.178667c80.810667 0 154.965333-59.904 154.965333-138.368v-48.042667l96.938667 97.706667c18.432 17.92 37.802667 26.837333 60.245333 26.837333 9.216 0 19.370667-0.981333 28.586667-4.992 28.672-11.946667 46.976-38.741333 46.976-71.509333V293.845333c0-32.768-19.413333-59.562667-48.042667-71.509333z" fill="#000000" p-id="8716"></path><path d="M538.154667 588.330667l-150.485334 75.264a85.333333 85.333333 0 0 1-123.52-76.373334v-150.485333a85.333333 85.333333 0 0 1 123.52-76.330667l150.485334 75.264a85.333333 85.333333 0 0 1 0 152.661334z" fill="#80FD8C" p-id="8717"></path></svg>