<?xml version="1.0" standalone="no"?><!DOCTYPE svg PUBLIC "-//W3C//DTD SVG 1.1//EN" "http://www.w3.org/Graphics/SVG/1.1/DTD/svg11.dtd"><svg t="1729478877201" class="icon" viewBox="0 0 1024 1024" version="1.1" xmlns="http://www.w3.org/2000/svg" p-id="19550" xmlns:xlink="http://www.w3.org/1999/xlink" width="200" height="200"><path d="M768 128a128 128 0 0 1 128 128v512a128 128 0 0 1-128 128H256a128 128 0 0 1-128-128V256a128 128 0 0 1 128-128h512z m-305.408 188.672c-3.84-37.205333-48.597333-52.906667-73.216-25.685333l-3.072 3.84L304.64 363.392l-3.157333 4.949333c-7.509333 13.653333-7.509333 30.506667 0 44.16l3.157333 4.992 81.621333 68.608 3.2 3.968c24.746667 27.093333 69.418667 11.221333 73.088-26.026666l0.256-4.992-0.042666-24.149334h75.050666l7.893334 0.256c65.365333 3.712 115.584 53.034667 115.584 111.061334 0 58.112-50.346667 107.52-115.882667 111.104l-7.594667 0.170666H362.666667l-4.992 0.298667c-21.205333 2.56-37.674667 21.418667-37.674667 44.245333 0 22.954667 16.64 41.813333 38.016 44.245334l4.650667 0.256h175.189333l9.472-0.213334c110.08-4.693333 199.338667-91.434667 199.338667-200.106666 0-108.714667-89.429333-195.498667-199.594667-200.106667l-9.216-0.213333h-75.050667v-24.106667l-0.213333-5.162667z" fill="#000000" p-id="19551"></path></svg>