<?xml version="1.0" standalone="no"?><!DOCTYPE svg PUBLIC "-//W3C//DTD SVG 1.1//EN" "http://www.w3.org/Graphics/SVG/1.1/DTD/svg11.dtd"><svg t="1717692822916" class="icon" viewBox="0 0 1024 1024" version="1.1" xmlns="http://www.w3.org/2000/svg" p-id="13120" xmlns:xlink="http://www.w3.org/1999/xlink" width="200" height="200"><path d="M119.472 371.216h785.056v594.464H119.472z" fill="#DE4C3C" p-id="13121"></path><path d="M119.472 371.216h785.056v78.224H119.472z" fill="#C74436" p-id="13122"></path><path d="M51.2 230.384v140.832H972.8v-140.832z" fill="#DE4C3C" p-id="13123"></path><path d="M443.728 230.384h136.528v735.296h-136.528z" fill="#87CED9" p-id="13124"></path><path d="M443.728 339.904l-119.456 203.376-34.128-62.56-85.344 15.632 170.672-265.968h68.256z" fill="#6CBBC7" p-id="13125"></path><path d="M273.056 120.88h3.6a36.08 36.08 0 0 1 22.688 7.84l127.328 101.664H512l-145.584-133.44c-27.024-24.768-63.664-38.64-101.888-38.64-51.84 0-93.856 38.512-93.856 86.048s42.016 86.032 93.856 86.032h59.728l-72.352-53.024c-15.184-10.256-18.432-29.824-7.248-43.744 6.624-8.24 17.232-13.008 28.4-12.736zM759.472 58.32c-38.384-0.128-75.232 13.776-102.4 38.64L512 230.384h85.328l126.816-101.664a36.128 36.128 0 0 1 22.704-7.84h4.096c18.848-0.72 34.768 12.672 35.568 29.92 0.496 10.416-4.736 20.384-13.888 26.56l-72.88 53.024h59.728c51.84 0 93.856-38.496 93.856-86.032s-42.016-86.032-93.856-86.032z" fill="#87CED9" p-id="13126"></path><path d="M648.528 230.384L819.2 496.352l-85.344-15.632-34.128 62.56-119.456-203.376v-109.52zM443.728 965.68h136.528V631.536a1684.64 1684.64 0 0 1-136.528 63.504v270.64z" fill="#6CBBC7" p-id="13127"></path><path d="M759.472 42.656c-42.816-0.144-83.872 15.472-114.016 43.344L512 208.336l-133.456-122.336c-30.144-27.872-71.2-43.488-114.016-43.344-61.152-0.112-110.864 45.264-110.992 101.328-0.048 26.4 11.088 51.792 31.104 70.784H51.2c-9.424 0-17.056 6.992-17.056 15.632v140.832c0 8.624 7.648 15.632 17.056 15.632h51.2v578.848c0 8.624 7.648 15.664 17.056 15.664h785.056c9.424 0 17.056-7.024 17.056-15.664V386.848h51.2c9.424 0 17.056-7.008 17.056-15.632v-140.832c0-8.64-7.648-15.632-17.056-15.632h-133.456c42.496-40.336 41.312-104.608-2.688-143.584-20.672-18.32-48.368-28.56-77.152-28.512z m-89.936 65.408c23.792-21.936 56.192-34.24 89.936-34.128 42.4 0 76.8 31.552 76.8 70.416s-34.384 70.4-76.8 70.4h-11.088l34.128-25.2c12.528-9.008 19.776-22.816 19.632-37.392 0-25.904-22.912-46.944-51.184-46.944h-3.6a54.048 54.048 0 0 0-34.128 11.728l-122.368 97.792H553.12l116.416-106.672z m-72.208 138h41.472l146.272 228.064-47.776-9.056c-7.536-1.392-15.136 2.016-18.608 8.304l-18.944 35.984-102.4-173.328v-89.968z m45.408-31.296l92.496-74.336a18.88 18.88 0 0 1 11.616-3.888h4.096c9.376-0.784 17.664 5.584 18.496 14.192a15.232 15.232 0 0 1-7.584 14.416l-68.272 49.616h-50.848zM187.728 144.352c0.08-38.848 34.416-70.336 76.8-70.416 33.744-0.112 66.144 12.192 89.936 34.128l116.4 106.704h-37.712l-122.032-97.792a54 54 0 0 0-34.128-11.728h-3.936c-28.288 0-51.184 21.024-51.184 46.944-0.048 14.384 7.12 28 19.456 36.928l34.128 25.184h-10.928c-42.176-0.096-76.416-31.296-76.8-69.952z m238.944 191.664l-102.4 173.328-19.456-35.664c-3.296-6.208-10.656-9.696-18.096-8.608l-47.776 8.752 146.272-227.744h41.472v89.936z m-96.432-121.248l-68.272-49.616c-7.856-4.752-10.048-14.448-4.864-21.664a17.6 17.6 0 0 1 15.952-6.96h3.6c4.256 0 8.352 1.36 11.6 3.888l93.008 74.336H330.24zM68.272 246.064H345.6l-70.32 109.488H68.272v-109.488z m68.256 140.784H256l-65.184 101.536a14.576 14.576 0 0 0 0 17.04 17.76 17.76 0 0 0 17.056 6.272l72.528-13.28 28.336 51.92c2.96 5.36 8.992 8.704 15.536 8.608 6.304-0.016 12.064-3.216 15.008-8.304l87.392-148.144v547.552H136.528v-563.2z m324.272 563.2V246.064h102.4v703.984h-102.4z m426.672 0H597.328V402.496l87.392 148.608c3.072 4.928 8.832 7.904 15.008 7.824 6.304-0.144 12.016-3.456 14.848-8.608l28.336-51.92 72.864 13.6c6.544 1.136 13.2-1.296 17.072-6.256a14.608 14.608 0 0 0 0-17.056L768 386.848h119.472v563.2z m68.256-594.496H748.72L678.4 246.064h277.328v109.488z" p-id="13128"></path></svg>