<?xml version="1.0" standalone="no"?><!DOCTYPE svg PUBLIC "-//W3C//DTD SVG 1.1//EN" "http://www.w3.org/Graphics/SVG/1.1/DTD/svg11.dtd"><svg t="1717692756179" class="icon" viewBox="0 0 1024 1024" version="1.1" xmlns="http://www.w3.org/2000/svg" p-id="10616" xmlns:xlink="http://www.w3.org/1999/xlink" width="200" height="200"><path d="M221.856 17.072a68.288 68.288 0 0 0-68.272 68.256v921.616h648.544a68.288 68.288 0 0 0 68.272-68.272V85.328a68.272 68.272 0 0 1 68.272-68.256H221.856z" fill="#87CED9" p-id="10617"></path><path d="M153.6 846.976v57.568h580.272v34.144a68.288 68.288 0 0 0 136.56 0V85.328c0.112-2.608 0.368-5.216 0.784-7.792A1261.376 1261.376 0 0 1 153.6 846.976z" fill="#71C4D1" p-id="10618"></path><path d="M733.856 938.672v-34.144h-716.8v34.144a68.272 68.272 0 0 0 68.272 68.272h716.816a68.288 68.288 0 0 1-68.288-68.272zM1006.944 119.472H870.4V85.328a68.272 68.272 0 0 1 136.544 0v34.144z" fill="#4398D1" p-id="10619"></path><path d="M324.272 102.384h375.472v34.144H324.272V102.384zM341.328 324.272H256a17.056 17.056 0 0 1-17.056-17.056v-85.344c0-9.424 7.648-17.056 17.056-17.056h85.328c9.44 0 17.072 7.648 17.072 17.056V307.2c0 9.424-7.632 17.072-17.072 17.072z m-68.272-34.128h51.2v-51.2h-51.2v51.2zM426.672 204.8h358.384v34.144H426.672V204.8zM426.672 273.056H716.8V307.2H426.672v-34.144zM341.328 494.944H256a17.072 17.072 0 0 1-17.056-17.072v-85.328c0-9.424 7.648-17.056 17.056-17.056h85.328c9.44 0 17.072 7.648 17.072 17.056v85.328c0 9.424-7.632 17.072-17.072 17.072zM273.056 460.8h51.2v-51.2h-51.2v51.2zM426.672 375.472h358.384V409.6H426.672v-34.128zM426.672 443.728H716.8v34.128H426.672v-34.128zM341.328 665.6H256a17.056 17.056 0 0 1-17.056-17.056V563.2c0-9.424 7.648-17.056 17.056-17.056h85.328c9.44 0 17.072 7.648 17.072 17.056v85.328c0 9.424-7.632 17.072-17.072 17.072z m-68.272-34.128h51.2v-51.2h-51.2v51.2zM426.672 546.144h221.856v34.128H426.672v-34.128zM426.672 614.4h153.6v34.128h-153.6V614.4zM341.328 836.272H256a17.056 17.056 0 0 1-17.056-17.056v-85.344c0-9.424 7.648-17.056 17.056-17.056h85.328c9.44 0 17.072 7.648 17.072 17.056V819.2c0 9.424-7.632 17.072-17.072 17.072z m-68.272-34.128h51.2v-51.2h-51.2v51.2z" fill="#59B3C2" p-id="10620"></path><path d="M295.12 261.008l85.344-85.344 24.128 24.144-85.328 85.328-24.144-24.128zM295.12 431.664l85.344-85.328 24.128 24.144-85.328 85.328-24.144-24.144zM295.136 602.336l85.328-85.328 24.144 24.128-85.344 85.344-24.128-24.144zM295.136 773.056l85.328-85.328 24.144 24.144-85.344 85.328-24.128-24.144z" fill="#2A7DB8" p-id="10621"></path><path d="M426.672 716.8h153.6v34.144h-153.6V716.8zM426.672 785.056H716.8V819.2H426.672v-34.144z" fill="#59B3C2" p-id="10622"></path><path d="M981.328 366.944a36.16 36.16 0 0 0-51.184 0L870.4 426.672 648.528 648.528 631.472 716.8l68.272-17.056L870.4 529.056l110.928-110.928a36.16 36.16 0 0 0 0-51.184z" fill="#4398D1" p-id="10623"></path><path d="M892.464 404.592l24.144-24.128 51.2 51.2-24.144 24.128-51.2-51.2z" fill="#2A7DB8" p-id="10624"></path><path d="M938.672 0H221.856a85.44 85.44 0 0 0-85.328 85.328v802.144H17.056c-9.408 0-17.056 7.632-17.056 17.056v34.144A85.456 85.456 0 0 0 85.328 1024h716.816a85.456 85.456 0 0 0 85.328-85.328V536.144l105.936-105.936a53.28 53.28 0 0 0-75.344-75.344l-30.592 30.608V136.528h119.472c9.408 0 17.056-7.632 17.056-17.056V85.328A85.44 85.44 0 0 0 938.672 0zM85.328 989.856a51.2 51.2 0 0 1-51.184-51.184V921.6H716.8v17.072a84.8 84.8 0 0 0 1.616 15.824c0.32 1.712 0.8 3.152 1.184 4.752 0.864 3.472 1.904 6.896 3.168 10.24a85.92 85.92 0 0 0 7.088 14c0.896 1.44 1.696 2.88 2.704 4.256 0.48 0.704 0.848 1.472 1.36 2.128H85.328z m768-51.184a51.2 51.2 0 0 1-102.384 0v-34.144c0-9.424-7.648-17.056-17.072-17.056h-563.2V85.328a51.184 51.184 0 0 1 51.184-51.184H870.4c-0.512 0.656-0.88 1.44-1.36 2.128-0.976 1.376-1.824 2.816-2.704 4.256a85.216 85.216 0 0 0-4.928 9.04c-0.768 1.696-1.488 3.264-2.16 4.96a84.208 84.208 0 0 0-3.168 10.24c-0.384 1.584-0.896 3.12-1.184 4.736a86.32 86.32 0 0 0-1.584 15.84v334.288L636.464 636.464a17.12 17.12 0 0 0-4.48 7.936l-17.072 68.272c-1.44 5.808 0.272 11.952 4.496 16.192 1.44 1.392 3.104 2.496 4.944 3.296a16.848 16.848 0 0 0 7.008 1.68h0.112c1.392 0 2.784-0.176 4.128-0.496l68.272-17.072c3.008-0.752 5.744-2.304 7.936-4.48l141.536-141.52v368.4z m88.88-559.664a19.584 19.584 0 0 1 27.056 0 19.136 19.136 0 0 1 0 27.056l-13.536 13.552-27.056-27.072 13.536-13.536z m-37.68 37.664l27.072 27.056-240.64 240.64-36.08 9.024 9.008-36.08 240.64-240.64z m85.328-314.288h-102.384V85.328a51.184 51.184 0 1 1 102.384 0v17.056z" p-id="10625"></path><path d="M324.272 102.384h375.472v34.144H324.272V102.384zM349.184 206.96a16.672 16.672 0 0 0-7.856-2.16H256c-9.424 0-17.056 7.648-17.056 17.056V307.2c0 9.424 7.648 17.056 17.056 17.056h85.328c9.44 0 17.072-7.648 17.072-17.056v-61.2l46.192-46.208-24.128-24.128-31.28 31.296z m-24.912 83.184h-51.2v-51.2h44.144l-22.064 22.064 24.128 24.144 5.008-5.008v10zM426.672 204.8h358.384v34.144H426.672V204.8zM426.672 273.056H716.8V307.2H426.672v-34.144zM349.184 377.616a16.656 16.656 0 0 0-7.856-2.144H256c-9.424 0-17.056 7.648-17.056 17.056v85.328c0 9.44 7.648 17.072 17.056 17.072h85.328c9.44 0 17.072-7.648 17.072-17.072v-61.184l46.192-46.208-24.128-24.144-31.28 31.296zM324.272 460.8h-51.2v-51.2h44.144l-22.064 22.08 24.128 24.128 5.008-5.008v10zM426.672 375.472h358.384V409.6H426.672v-34.128zM426.672 443.728H716.8v34.128H426.672v-34.128zM349.184 548.288a16.48 16.48 0 0 0-7.856-2.144H256c-9.424 0-17.056 7.648-17.056 17.056v85.328c0 9.424 7.648 17.056 17.056 17.056h85.328c9.44 0 17.072-7.648 17.072-17.056v-61.2l46.192-46.192-24.128-24.144-31.28 31.296z m-24.912 83.184h-51.2v-51.2h44.144l-22.064 22.064 24.128 24.144 5.008-5.008v10zM426.672 546.144h221.856v34.128H426.672v-34.128zM426.672 614.4h153.6v34.128h-153.6V614.4zM349.184 718.96a16.672 16.672 0 0 0-7.856-2.16H256c-9.424 0-17.056 7.648-17.056 17.056V819.2c0 9.424 7.648 17.056 17.056 17.056h85.328c9.44 0 17.072-7.648 17.072-17.056v-61.2l46.192-46.208-24.128-24.128-31.28 31.296z m-24.912 83.184h-51.2v-51.2h44.144l-22.064 22.064 24.128 24.144 5.008-5.008v10zM426.672 716.8h153.6v34.144h-153.6V716.8zM426.672 785.056H716.8V819.2H426.672v-34.144z" p-id="10626"></path></svg>