<?xml version="1.0" standalone="no"?><!DOCTYPE svg PUBLIC "-//W3C//DTD SVG 1.1//EN" "http://www.w3.org/Graphics/SVG/1.1/DTD/svg11.dtd"><svg t="1717692766148" class="icon" viewBox="0 0 1024 1024" version="1.1" xmlns="http://www.w3.org/2000/svg" p-id="11146" xmlns:xlink="http://www.w3.org/1999/xlink" width="200" height="200"><path d="M834.96 659.264a39.936 39.936 0 0 0-5.936-21.056l-37.888-60.976A66.768 66.768 0 0 1 784 547.008V359.152c0-121.952-98.848-220.8-220.8-220.8h-101.904c-121.952 0-220.8 98.848-220.8 220.8v187.856a66.56 66.56 0 0 1-7.136 30.224l-37.872 60.976a39.728 39.728 0 0 0 33.632 60.64h566.272a39.728 39.728 0 0 0 39.568-39.584z" fill="#88B337" p-id="11147"></path><path d="M563.216 138.336l84.912-118.88H376.384l84.928 118.88v33.984h101.904z" fill="#88B337" p-id="11148"></path><path d="M829.024 638.208l-37.888-60.976A66.768 66.768 0 0 1 784 547.008V359.152a220.72 220.72 0 0 0-46.368-135.872C692.304 473.12 532.64 617.136 382.672 698.848h412.72a39.76 39.76 0 0 0 33.968-60.64h-0.336z" fill="#6B962A" p-id="11149"></path><path d="M597.184 393.12v-10.864a57.232 57.232 0 0 0-57.072-57.072h-10.864v-33.968h-33.968v33.968h-10.88a57.056 57.056 0 0 0-20.032 110.56l30.912 11.552V512h-10.88a23.088 23.088 0 0 1-23.088-23.104v-10.864h-33.968v10.864a57.232 57.232 0 0 0 57.056 57.072h55.712a57.088 57.088 0 0 0 20.048-110.56l-30.912-11.552v-64.704h10.864c12.752 0 23.104 10.336 23.104 23.104v10.864h33.968z m-48.912 74.048c8.976 3.472 14.896 12.112 14.944 21.728 0 12.752-10.336 23.104-23.104 23.104h-10.864v-51.968l19.024 7.136z m-52.992-56.048l-19.024-7.136a23.424 23.424 0 0 1-14.944-21.728c0-12.752 10.336-23.104 23.088-23.104h10.88v51.968z" fill="#FFFFFF" p-id="11150"></path><path d="M851.952 189.312A82.544 82.544 0 0 0 784 121.36a82.56 82.56 0 0 0 67.936-67.936 82.56 82.56 0 0 0 67.952 67.936 82.528 82.528 0 0 0-67.936 67.952zM87.648 528.992a82.56 82.56 0 0 0-67.936-67.936 82.56 82.56 0 0 0 67.936-67.936 82.56 82.56 0 0 0 67.936 67.936 82.512 82.512 0 0 0-67.936 67.936z" fill="#FDB62F" p-id="11151"></path><path d="M997.504 612.048a50.944 50.944 0 0 0-67.936-18.848l-241.008 102.928a34.224 34.224 0 0 1-13.408 2.72H376.384a33.968 33.968 0 1 1 0-67.952h135.872a101.888 101.888 0 0 0 101.904-101.904H331.536a154.384 154.384 0 0 0-120.416 57.92l-106.496 128.912 119.92 219.776 461.472-110.912a245.2 245.2 0 0 0 57.408-21.056l237.792-121.776a50.944 50.944 0 0 0 16.288-69.808z" fill="#FEC9A3" p-id="11152"></path><path d="M186.32 865.632l38.224 69.984 461.472-110.912a245.2 245.2 0 0 0 57.408-21.056l128.576-66.064c-213.68 65.376-497.328 106.128-685.68 128.048z" fill="#F7BB8F" p-id="11153"></path><path d="M19.696 698.848v305.712h220.8l50.96-50.944L87.648 647.888z" fill="#4398D1" p-id="11154"></path><path d="M19.696 1004.56h220.8l50.96-50.96-37.36-56.048A1200.88 1200.88 0 0 1 19.712 967.36v37.2z" fill="#3E8CC7" p-id="11155"></path><path d="M172.56 919.728m-33.968 0a33.968 33.968 0 1 0 67.936 0 33.968 33.968 0 1 0-67.936 0Z" fill="#D9D9D9" p-id="11156"></path><path d="M19.696 1021.552h220.8a16.96 16.96 0 0 0 12.064-4.928l50.96-50.96a16.96 16.96 0 0 0 2.032-21.408l-8.496-12.736 392.848-90.352a265.888 265.888 0 0 0 61.328-22.416l237.776-122.448a68 68 0 1 0-66.08-118.896l-92.736 39.92-23.776-47.552a51.168 51.168 0 0 1-5.44-22.752V359.152A237.792 237.792 0 0 0 594.624 123.744l67.936-94.432a16.976 16.976 0 0 0-14.448-26.832H376.384a16.992 16.992 0 0 0-13.76 26.832l67.936 94.432a237.76 237.76 0 0 0-207.04 235.408V550.56a175.072 175.072 0 0 0-25.648 25.648l-75.072 93.936-21.056-31.6a16.96 16.96 0 0 0-11.216-7.648 17.92 17.92 0 0 0-13.072 3.232L9.52 685.088a16.928 16.928 0 0 0-6.784 13.76v305.712a16.96 16.96 0 0 0 16.96 16.992z m389.632-985.12h205.856l-60.64 84.928h-84.928l-60.288-84.928z m-151.84 322.72c0-112.56 91.264-203.824 203.824-203.824h101.904c112.56 0 203.808 91.264 203.808 203.824v187.856c0.032 13.136 3.104 26.112 9.008 37.872l22.752 46.016-116.688 49.6a16.8 16.8 0 0 1-6.624 1.36H376.384a17.008 17.008 0 0 1 0-33.984h135.872a118.896 118.896 0 0 0 118.896-118.896c0-9.376-7.616-16.992-16.992-16.992h-21.92c3.2-7.296 4.88-15.152 4.928-23.104a57.424 57.424 0 0 0-37.024-53.504l-30.912-11.552v-64.704h10.864c12.752 0 23.104 10.336 23.104 23.104v10.864h33.968v-10.864a57.232 57.232 0 0 0-57.072-57.072h-10.864v-33.968h-33.968v33.968h-10.88a57.056 57.056 0 0 0-20.032 110.56l30.912 11.552V512h-10.88a23.088 23.088 0 0 1-23.088-23.104v-10.864h-33.968v10.864c0.048 7.952 1.728 15.808 4.928 23.104h-100.72c-25.648 0-50.976 5.808-74.048 16.992V359.152z m305.728 129.76c0 12.752-10.336 23.104-23.104 23.104h-10.864v-51.968l19.024 7.136c8.96 3.488 14.88 12.096 14.944 21.728z m-67.936-129.76v51.968l-19.024-7.136a23.424 23.424 0 0 1-14.944-21.728c0-12.752 10.336-23.104 23.088-23.104h10.88zM224.368 596.928a136.816 136.816 0 0 1 107.168-50.96h263.936a84.928 84.928 0 0 1-83.216 67.936h-135.872a50.96 50.96 0 0 0 0 101.92h298.752c6.896 0.016 13.696-1.376 20.032-4.08l242.544-103.616a34.064 34.064 0 1 1 34.816 58.592l-236.768 121.776a232.8 232.8 0 0 1-53.664 19.536L277.008 901.28l-134.336-201.6 81.696-102.752z m-187.68 110.4l46.704-35.168 186.832 279.232-36.688 36.176H36.688V707.328z" p-id="11157"></path><path d="M172.56 868.688a50.96 50.96 0 1 0 0 101.92 50.96 50.96 0 0 0 0-101.92z m0 67.936a17.008 17.008 0 1 1 0.016-34 17.008 17.008 0 0 1-0.016 34zM834.96 50.704a65.664 65.664 0 0 1-53.664 53.664 17.008 17.008 0 0 0 0 33.984 65.696 65.696 0 0 1 53.664 53.664 17.008 17.008 0 0 0 33.984 0 65.696 65.696 0 0 1 53.664-53.664 17.008 17.008 0 0 0 0-33.984 65.696 65.696 0 0 1-53.664-53.664 16.992 16.992 0 0 0-33.984 0z m41.28 70.656a97.328 97.328 0 0 0-24.288 24.288 97.056 97.056 0 0 0-24.288-24.288 97.056 97.056 0 0 0 24.288-24.288 96.8 96.8 0 0 0 24.288 24.288zM16.992 478.032a65.68 65.68 0 0 1 53.664 53.664 17.008 17.008 0 0 0 33.984 0 65.68 65.68 0 0 1 53.664-53.664 17.008 17.008 0 0 0 0-33.984A65.648 65.648 0 0 1 104.624 390.4a17.008 17.008 0 0 0-33.968 0 65.664 65.664 0 0 1-53.664 53.664 17.008 17.008 0 0 0 0 33.968z m70.656-41.264a97.328 97.328 0 0 0 24.288 24.288 97.328 97.328 0 0 0-24.288 24.288 97.328 97.328 0 0 0-24.288-24.288 97.6 97.6 0 0 0 24.288-24.288z" p-id="11158"></path></svg>