<?xml version="1.0" standalone="no"?><!DOCTYPE svg PUBLIC "-//W3C//DTD SVG 1.1//EN" "http://www.w3.org/Graphics/SVG/1.1/DTD/svg11.dtd"><svg t="1717692774502" class="icon" viewBox="0 0 1024 1024" version="1.1" xmlns="http://www.w3.org/2000/svg" p-id="11315" xmlns:xlink="http://www.w3.org/1999/xlink" width="200" height="200"><path d="M1009.008 901.12H640.592V738.32a87.328 87.328 0 0 1 87.344-87.344h193.712a87.328 87.328 0 0 1 87.344 87.344V901.12z m0 0" fill="#EB5777" p-id="11316"></path><path d="M826.896 700.16a29.76 29.76 0 0 1-29.76-29.776v-83.52h59.536v83.52a29.808 29.808 0 0 1-29.776 29.776z m0 0" fill="#E39F6E" p-id="11317"></path><path d="M669.376 470.384h315.024l8.32-40.512c21.52-104.976-58.672-203.264-165.824-203.264-107.136 0-187.344 98.304-165.824 203.264l8.304 40.512z m0 0" fill="#BA6F3C" p-id="11318"></path><path d="M1001.968 486.256a40.08 40.08 0 1 1-80.192 0 40.08 40.08 0 0 1 80.192 0z m0 0M731.968 486.256a40.064 40.064 0 1 1-78.944-9.808 40.08 40.08 0 0 1 78.944 9.808z m0 0" fill="#E39F6E" p-id="11319"></path><path d="M730.912 477.12a76.768 76.768 0 0 1-38.368 10.208 76.832 76.832 0 0 1-39.504-10.88 40.08 40.08 0 0 1 77.872 0.672z m0 0" fill="#D88852" p-id="11320"></path><path d="M700.72 374.128l13.744 110.016 5.2 41.712a108.032 108.032 0 1 0 214.416 0l18.96-151.728h-252.32z m0 0" fill="#F8C298" p-id="11321"></path><path d="M769.936 409.936a77.552 77.552 0 0 1-55.472 74.224l-14.72-117.936h56.624c8.576 12.448 13.568 27.504 13.568 43.712z m0 0" fill="#E39F6E" p-id="11322"></path><path d="M677.152 377.264s26.896 26.688 99.312 28.592a8.096 8.096 0 0 0 8.336-8.144v-10.736s26.336 17.264 82.144 18.88a8.112 8.112 0 0 0 8.336-8.16v-6.08s21.696 13.248 86.752 14.288a8.144 8.144 0 0 0 8.256-8.144v-39.552a9.376 9.376 0 0 0-9.376-9.376h-255.36c-15.68 0-28.4 12.72-28.4 28.432z m0 0" fill="#BA6F3C" p-id="11323"></path><path d="M383.408 901.12H15.008V738.32a87.328 87.328 0 0 1 87.344-87.344h193.712a87.328 87.328 0 0 1 87.344 87.344V901.12z m0 0" fill="#4FCEB7" p-id="11324"></path><path d="M201.296 700.16a29.776 29.776 0 0 1-29.76-29.776v-83.52h59.536v83.52a29.792 29.792 0 0 1-29.776 29.776z m0 0" fill="#E39F6E" p-id="11325"></path><path d="M43.776 470.384h315.024l8.304-40.512c21.536-104.976-58.672-203.264-165.808-203.264S13.968 324.896 35.472 429.872l8.304 40.512z m0 0" fill="#BA6F3C" p-id="11326"></path><path d="M376.368 486.256a40.064 40.064 0 1 1-78.944-9.808 40.096 40.096 0 0 1 38.864-30.288 40.032 40.032 0 0 1 40.08 40.096z m0 0" fill="#E39F6E" p-id="11327"></path><path d="M375.312 477.136a77.024 77.024 0 0 1-77.888-0.688 40.096 40.096 0 0 1 77.888 0.688z m0 0" fill="#D88852" p-id="11328"></path><path d="M106.368 486.256a40.08 40.08 0 1 1-80.192 0 40.08 40.08 0 0 1 80.192 0z m0 0" fill="#E39F6E" p-id="11329"></path><path d="M75.12 374.128l18.976 151.728a108.048 108.048 0 0 0 214.4 0l5.28-42.08 13.664-109.664H75.12z m0 0" fill="#F8C298" p-id="11330"></path><path d="M268.4 374.128a76.752 76.752 0 0 0-8.832 35.792 77.52 77.52 0 0 0 54.208 73.84l13.664-109.648h-59.04z m0 0" fill="#E39F6E" p-id="11331"></path><path d="M51.568 377.264s26.896 26.688 99.312 28.592a8.096 8.096 0 0 0 8.336-8.144v-10.736s26.336 17.264 82.16 18.88a8.128 8.128 0 0 0 8.336-8.16v-6.08s21.696 13.248 86.752 14.288a8.128 8.128 0 0 0 8.256-8.144v-39.552a9.392 9.392 0 0 0-9.376-9.376H79.968c-15.68 0-28.4 12.72-28.4 28.432z m0 0" fill="#BA6F3C" p-id="11332"></path><path d="M754.592 956.288H269.424v-214.4a115.008 115.008 0 0 1 115.024-115.008h255.104a115.04 115.04 0 0 1 115.024 115.008v214.4z m0 0" fill="#A9D2F7" p-id="11333"></path><path d="M363.104 683.12v49.792h30.24l-17.04 58.656 52.864 70.848V626.864l-66.064 56.256z m0 0M666.384 683.12v49.792H636.16l17.04 58.656-52.88 70.848V626.864l66.064 56.256z m0 0" fill="#5F9EEB" p-id="11334"></path><path d="M429.152 626.864h171.184v329.424H429.152z" fill="#627687" p-id="11335"></path><path d="M754.576 741.888v214.4h-39.184v-214.4a115.04 115.04 0 0 0-115.04-115.008h39.216a114.992 114.992 0 0 1 115.008 115.008z m0 0" fill="#7FB7EA" p-id="11336"></path><path d="M514.768 691.632a39.216 39.216 0 0 1-39.216-39.2v-110h78.416v110a39.216 39.216 0 0 1-39.2 39.2z m0 0" fill="#F8C298" p-id="11337"></path><path d="M307.312 389.04h414.88l10.944-53.36c28.336-138.256-77.248-267.696-218.352-267.696S268.048 197.44 296.384 335.68l10.928 53.36z m0 0" fill="#FFCF64" p-id="11338"></path><path d="M745.328 409.936a52.8 52.8 0 1 1-105.6 0.016 52.8 52.8 0 0 1 105.6-0.016z m0 0M389.76 409.936a52.8 52.8 0 1 1-105.568 0.032 52.8 52.8 0 0 1 105.568-0.032z m0 0" fill="#F8C298" p-id="11339"></path><path d="M357.28 331.616l16.288 130.48a142.272 142.272 0 1 0 282.368 0l16.32-130.48a65.376 65.376 0 0 0-64.88-73.488H422.144a65.376 65.376 0 0 0-64.864 73.488z m0 0" fill="#FFD6C0" p-id="11340"></path><path d="M335.072 235.808v70.672a12.32 12.32 0 0 0 12.384 12.304c32.208-0.288 109.952-5.904 168.544-50.128 58.608 44.224 136.352 49.84 168.56 50.128a12.288 12.288 0 0 0 12.384-12.304v-70.672H335.072z m0 0" fill="#FFCF64" p-id="11341"></path><path d="M921.664 635.984H871.68v-8.928a123.408 123.408 0 0 0 75.312-87.776 55.152 55.152 0 0 0 70-53.008c0-13.616-4.992-26.08-13.2-35.696l3.632-17.68a182.32 182.32 0 0 0-29.872-143.12 15.04 15.04 0 0 0-20.912-3.616 15.04 15.04 0 0 0-3.616 20.928 152.592 152.592 0 0 1 25.008 119.792l-1.296 6.352a55.248 55.248 0 0 0-14.832-2.048l-0.864 0.016 1.504-11.872a15.008 15.008 0 0 0-6.032-28.528c-51.712-1.472-71.728-11.12-73.52-12.048a14.528 14.528 0 0 0-15.008-0.496 14.944 14.944 0 0 0-7.648 12.336c-45.232-2.528-67.168-16.048-67.28-16.128a15.04 15.04 0 0 0-23.232 12.544v3.616a240.64 240.64 0 0 1-12.592-0.976 68.032 68.032 0 0 0-14.624-25.344l5.232-25.584c5.28-25.76 6.24-51.792 3.088-77.152a153.92 153.92 0 0 1 75.968-19.936 153.44 153.44 0 0 1 83.088 24.24 14.992 14.992 0 0 0 16.208-25.28 183.472 183.472 0 0 0-99.296-28.976c-28.64 0-56.608 6.576-81.888 19.104a238 238 0 0 0-45.888-90.208 236.992 236.992 0 0 0-184.336-87.52c-52.48 0-102.176 16.672-143.664 48.224a14.992 14.992 0 0 0 18.128 23.888 205.76 205.76 0 0 1 125.536-42.112c62.72 0 121.44 27.872 161.104 76.496a207.104 207.104 0 0 1 42.56 173.168l-2.784 13.552a67.552 67.552 0 0 0-29.648-3.744l1.104-8.816a27.184 27.184 0 0 0 24.864-27.168v-34.928a14.992 14.992 0 1 0-30.016 0v32.192c-31.232-0.56-103.232-6.544-156.912-47.056a15.008 15.008 0 0 0-18.064 0c-53.68 40.512-125.68 46.496-156.928 47.056v-32.192a14.992 14.992 0 1 0-30.016 0v34.928c0 7.328 2.896 14.224 8.096 19.392 3.936 3.904 8.864 6.464 14.224 7.44l0.016 0.16 1.104 9.008a67.776 67.776 0 0 0-29.632 3.744l-2.8-13.536c-11.872-58 0.736-116.256 35.52-164.032a14.992 14.992 0 1 0-24.256-17.664 237.44 237.44 0 0 0-38.128 80.256 183.952 183.952 0 0 0-82.912-19.648 183.616 183.616 0 0 0-142.8 67.776 183.584 183.584 0 0 0-37.712 153.488l3.632 17.68a54.8 54.8 0 0 0-13.184 35.696 55.136 55.136 0 0 0 69.984 53.008 123.36 123.36 0 0 0 75.328 87.776v8.928H102.336A102.512 102.512 0 0 0 0 738.32V901.12a15.008 15.008 0 0 0 30.016 0V738.32a72.432 72.432 0 0 1 72.336-72.352h54.192v4.416c0 24.688 20.08 44.768 44.768 44.768s44.784-20.08 44.784-44.768v-4.416h32.896a129.408 129.408 0 0 0-24.544 75.92v214.4a14.992 14.992 0 1 0 30 0v-214.4a100.16 100.16 0 0 1 100.048-100.016h3.968l-35.024 29.84a14.976 14.976 0 0 0-5.28 11.408v49.792c0 8.288 6.72 15.008 15.008 15.008h10.256l-11.472 39.488a15.088 15.088 0 0 0 2.368 13.152l49.904 66.848v88.896a14.992 14.992 0 1 0 30 0V641.872h16.368v10.56c0 29.872 24.336 54.192 54.224 54.192s54.224-24.32 54.224-54.192v-10.56h16.368v314.416a15.008 15.008 0 0 0 30.016 0v-88.896l49.888-66.848a15.04 15.04 0 0 0 2.368-13.152l-11.472-39.488h10.256c8.288 0 15.008-6.72 15.008-15.008v-49.792a14.992 14.992 0 0 0-5.264-11.408l-35.008-29.808c54.432 0.848 98.464 45.376 98.464 99.984v56.256a14.992 14.992 0 1 0 30 0v-56.256c0-28.32-9.136-54.528-24.56-75.92h37.088v4.416c0 24.688 20.096 44.768 44.784 44.768s44.768-20.08 44.768-44.768v-4.416h50a72.432 72.432 0 0 1 72.336 72.352V901.12c0 8.288 6.72 15.008 15.008 15.008s14.912-6.736 14.912-15.008V738.32a102.448 102.448 0 0 0-102.336-102.336z m40.224-174.816a25.12 25.12 0 0 1 25.072 25.072 25.104 25.104 0 0 1-35.632 22.752l5.904-47.376c1.536-0.288 3.088-0.448 4.656-0.448zM776 420.848h0.608a23.36 23.36 0 0 0 20.368-11.984c14.864 5.312 37.92 11.056 69.488 11.968a23.488 23.488 0 0 0 19.248-9.28c10.288 2.976 25.392 6.112 46.576 7.92l-13.056 104.528a93.216 93.216 0 0 1-92.336 81.504 93.216 93.216 0 0 1-92.336-81.504l-7.008-56.064a67.888 67.888 0 0 0 32.032-47.984c5.376 0.448 10.848 0.752 16.416 0.896z m-109.088 63.408c0.656-2.464 1.216-4.976 1.744-7.488 0.4-0.992 0.896-1.936 1.424-2.88a67.456 67.456 0 0 0 28.432 3.536l3.952 31.552a25.12 25.12 0 0 1-35.552-24.72z m25.616-112.112a37.824 37.824 0 0 1 37.792 37.776 37.84 37.84 0 0 1-37.792 37.808c-6.784 0-13.28-1.808-19.024-5.184l8.608-68.928c3.36-0.944 6.864-1.472 10.416-1.472z m-176.512-85.072c47.28 31.856 103.568 42.192 141.008 45.376l-15.952 127.792c-7.936 63.584-62.24 111.52-126.304 111.52s-118.352-47.936-126.304-111.52l-15.936-127.6c37.408-2.912 95.152-12.992 143.488-45.568zM329.68 477.328a67.36 67.36 0 0 0 28.64-3.088 25.088 25.088 0 0 1-32.592 34.736l3.952-31.648z m17.728-103.712l8.608 68.96a37.28 37.28 0 0 1-19.04 5.168 37.84 37.84 0 0 1-37.776-37.808 37.808 37.808 0 0 1 48.208-36.32zM81.76 298.352a153.632 153.632 0 0 1 119.536-56.752c27.264 0 53.776 7.088 77.072 20.544a238.48 238.48 0 0 0 3.312 76.528l5.232 25.584a67.472 67.472 0 0 0-12.672 20.032c-10.864-2.608-15.984-5.104-16.864-5.568a14.528 14.528 0 0 0-15.008-0.496 14.944 14.944 0 0 0-7.648 12.336c-45.232-2.544-67.152-16.048-67.28-16.128a15.04 15.04 0 0 0-23.232 12.544v3.616c-32.848-1.696-54.368-8.848-66.912-14.736a14.992 14.992 0 1 0-13.744 26.608l3.584 28.72h-0.848c-5.136 0-10.096 0.72-14.832 2.032l-1.296-6.352a153.76 153.76 0 0 1 31.6-128.512zM41.216 486.256a25.12 25.12 0 0 1 29.712-24.656l5.936 47.392a25.12 25.12 0 0 1-35.648-22.736z m67.776 37.744l-13.792-110.336c14.672 3.68 32.944 6.576 55.232 7.168h0.608a23.312 23.312 0 0 0 20.352-11.984c14.864 5.312 37.936 11.056 69.488 11.968a23.52 23.52 0 0 0 19.232-9.248c2.72 0.784 5.776 1.584 9.216 2.352a67.84 67.84 0 0 0 31.408 53.232l-7.088 56.832a93.2 93.2 0 0 1-92.32 81.504 93.12 93.12 0 0 1-92.336-81.488z m92.304 161.168a14.8 14.8 0 0 1-14.768-14.784v-35.792c4.848 0.592 9.776 0.944 14.768 0.944 5.008 0 9.92-0.336 14.784-0.944v35.792a14.816 14.816 0 0 1-14.784 14.784z m191.488 103.424l14.976-51.488a15.088 15.088 0 0 0-2.4-13.2 15.072 15.072 0 0 0-12-6h-15.216v-27.84l36.048-30.704v157.888l-21.408-28.656z m-8.336-176.72a129.28 129.28 0 0 0-76.304 24.832 105.536 105.536 0 0 0-12.096-0.72H246.08v-8.928a123.392 123.392 0 0 0 75.312-87.808 54.976 54.976 0 0 0 56.672-17.12 158.032 158.032 0 0 0 82.48 69.936v19.808h-76.096z m130.32 64.768c-13.36 0-24.224-10.88-24.224-24.208V599.84a155.44 155.44 0 0 0 48.432 0v52.592c0 13.328-10.864 24.208-24.208 24.208z m136.624 41.264h-15.216a15.04 15.04 0 0 0-14.4 19.2l14.976 51.488-21.392 28.656V659.36l36.048 30.704v27.84z m76.544-81.92c-4.032 0-8.08 0.256-12.08 0.72a129.312 129.312 0 0 0-76.304-24.832H568.96v-19.808a158.096 158.096 0 0 0 81.984-69.04 54.96 54.96 0 0 0 55.872 16.256 123.328 123.328 0 0 0 75.312 87.792v8.928h-54.192z m98.96 49.184a14.8 14.8 0 0 1-14.768-14.784v-35.792a118.416 118.416 0 0 0 29.536 0v35.792a14.8 14.8 0 0 1-14.768 14.784z m0 0" p-id="11342"></path><path d="M753.024 478l0.192 6.352a15.008 15.008 0 0 0 14.992 14.592h0.416a14.992 14.992 0 0 0 14.576-15.408l-0.176-6.352a14.944 14.944 0 0 0-15.408-14.576 15.04 15.04 0 0 0-14.592 15.392z m0 0M885.728 498.96h0.416a14.992 14.992 0 0 0 14.576-15.408l-0.176-6.352a14.992 14.992 0 1 0-30 0.816l0.192 6.352a15.008 15.008 0 0 0 14.992 14.592z m0 0M779.024 530.8a59.264 59.264 0 0 0 47.856 24.464c18.896 0 36.8-9.152 47.872-24.464a15.008 15.008 0 1 0-24.304-17.6c-5.472 7.568-14.288 12.064-23.584 12.064s-18.112-4.496-23.584-12.064a14.992 14.992 0 1 0-24.256 17.6z m0 0M937.84 749.76a15.008 15.008 0 0 0-15.008 15.008v136.336a15.008 15.008 0 0 0 30.016 0v-136.336a14.992 14.992 0 0 0-15.008-15.008z m0 0M157.632 483.552l-0.192-6.352a14.976 14.976 0 1 0-29.984 0.816l0.176 6.352a15.008 15.008 0 0 0 14.992 14.592h0.416a15.04 15.04 0 0 0 14.592-15.408z m0 0M260.144 498.96h0.4a15.008 15.008 0 0 0 14.592-15.408l-0.176-6.352a15.008 15.008 0 0 0-30 0.816l0.192 6.352a15.008 15.008 0 0 0 14.992 14.592z m0 0M249.168 530.8a15.024 15.024 0 0 0-24.304-17.6 29.2 29.2 0 0 1-23.584 12.064c-9.28 0-18.112-4.496-23.584-12.064a14.976 14.976 0 1 0-24.304 17.6 59.312 59.312 0 0 0 47.872 24.464 59.248 59.248 0 0 0 47.904-24.464z m0 0M86.16 749.76a15.008 15.008 0 0 0-15.008 15.008v136.336a15.008 15.008 0 0 0 30.016 0v-136.336a15.04 15.04 0 0 0-15.008-15.008z m0 0M754.592 847.152a14.992 14.992 0 0 0-15.008 14.992v94.16a14.992 14.992 0 1 0 30.016 0v-94.16a15.008 15.008 0 0 0-15.008-14.992z m0 0M437.488 421.92h0.4a15.008 15.008 0 0 0 14.592-15.408l-0.24-8.368a15.008 15.008 0 0 0-29.984 0.832l0.224 8.368a15.04 15.04 0 0 0 15.008 14.576z m0 0M592.256 421.92h0.416a14.992 14.992 0 0 0 14.576-15.408l-0.224-8.368a15.008 15.008 0 0 0-30 0.832l0.24 8.368a15.008 15.008 0 0 0 14.992 14.576z m0 0M514.768 496.08a73.248 73.248 0 0 0 59.184-30.272 15.024 15.024 0 0 0-24.304-17.6 43.232 43.232 0 0 1-34.896 17.84c-13.76 0-26.816-6.672-34.912-17.84a15.008 15.008 0 1 0-24.304 17.6 73.36 73.36 0 0 0 59.232 30.272z m0 0M363.104 822.656a15.024 15.024 0 0 0-15.008 15.008v118.624a15.024 15.024 0 0 0 30.016 0v-118.624a14.976 14.976 0 0 0-15.008-15.008z m0 0M660.896 822.656a14.992 14.992 0 0 0-15.008 15.008v118.624a14.992 14.992 0 1 0 30.016 0v-118.624a15.024 15.024 0 0 0-15.008-15.008z m0 0" p-id="11343"></path></svg>