<?xml version="1.0" standalone="no"?><!DOCTYPE svg PUBLIC "-//W3C//DTD SVG 1.1//EN" "http://www.w3.org/Graphics/SVG/1.1/DTD/svg11.dtd"><svg t="1719030710327" class="icon" viewBox="0 0 1024 1024" version="1.1" xmlns="http://www.w3.org/2000/svg" p-id="12212" xmlns:xlink="http://www.w3.org/1999/xlink" width="200" height="200"><path d="M904.7 529.7c-24.5-19.5-60-16.2-80.3 7.7l-95.3 107.9c-0.8 0.8-1.2 1.9-1.2 2.9-2.5 53.3-46.5 94.6-99.8 94.6H523.7c-11.6-1.9-19.9-11.8-18.3-23.7 0.8-9.1 8.3-16.6 18.3-18.7 0.2 0 0.4-0.2 0.8-0.2h103.6c30.3 0.8 54.8-22.6 57.5-52.9v-0.4c0.8-30.3-23-55.6-53.3-56.5H456.8c-0.4 0-1-0.2-1.5-0.2l-27.2-10c-71-24.5-149.6-6.6-203 45.7L100.3 750.7c-1.9 1.9-1.9 4.6 0 6.2l172.8 168.8c1.9 1.7 4.6 1.7 6.2 0l46.3-46.3c0.8-0.8 1.9-1.2 3.3-1.2h287.2c38.8 0 76.2-16.8 102.3-46.5l192.8-220.6c19.9-23.5 18.7-58.1-4.2-79.5-0.4-0.4-0.8-0.8-1.5-0.8-0.4-0.7-0.8-1.1-0.8-1.1z" p-id="12213" fill="#000000"></path><path d="M373.7 215.1a110.3 116.9 0 1 0 220.6 0 110.3 116.9 0 1 0-220.6 0Z" p-id="12214" fill="#000000"></path><path d="M506 496.3m-71.3 0a71.3 71.3 0 1 0 142.6 0 71.3 71.3 0 1 0-142.6 0Z" p-id="12215" fill="#000000"></path><path d="M610.9 246.1c-10.7 49-46.4 87.8-92.1 100.5 6.7 41.2 42.4 72.6 85.5 72.6 47.9 0 86.7-38.8 86.7-86.7 0-45.6-35.3-83-80.1-86.4z" p-id="12216" fill="#000000"></path></svg>