<?xml version="1.0" standalone="no"?><!DOCTYPE svg PUBLIC "-//W3C//DTD SVG 1.1//EN" "http://www.w3.org/Graphics/SVG/1.1/DTD/svg11.dtd"><svg t="1719032244971" class="icon" viewBox="0 0 1024 1024" version="1.1" xmlns="http://www.w3.org/2000/svg" p-id="4848" xmlns:xlink="http://www.w3.org/1999/xlink" width="200" height="200"><path d="M512 0C229.2 0 0 229.2 0 512s229.2 512 512 512 512-229.2 512-512S794.8 0 512 0z m288.8 379.5l-354 354c-10.3 10.3-23.8 15.4-37.2 15.4s-27-5.1-37.2-15.4l-158-158c-20.6-20.6-20.6-53.9 0-74.5s53.9-20.6 74.5 0l120.8 120.7 316.8-316.8c20.6-20.6 53.9-20.6 74.5 0 20.4 20.7 20.4 54.1-0.2 74.6z" p-id="4849" fill="#ffffff"></path></svg>