<?xml version="1.0" standalone="no"?><!DOCTYPE svg PUBLIC "-//W3C//DTD SVG 1.1//EN" "http://www.w3.org/Graphics/SVG/1.1/DTD/svg11.dtd"><svg t="1719032206502" class="icon" viewBox="0 0 1024 1024" version="1.1" xmlns="http://www.w3.org/2000/svg" p-id="3708" xmlns:xlink="http://www.w3.org/1999/xlink" width="200" height="200"><path d="M583.82464 618.496c2.88 2.816 5.696 5.12 7.936 7.872 7.36 7.36 14.72 14.144 22.656 21.504 59.968-10.24 132.992-94.4 132.992-94.4L663.05664 468.736 547.60064 583.424c7.936 7.36 15.872 14.72 23.808 22.656l12.416 12.416z m-187.328-178.56l-117.76 115.84s74.24 84.16 135.296 94.336c143.808-137.28 240.576-220.928 286.976-274.56 42.432-49.216 46.976-69.568 50.368-77.44 14.144-28.288 24.96-73.472 25.472-94.4 0-12.416-8.512-8.448-8.512-8.448S715.72864 194.56 658.57664 212.224c-52.672 16.384-101.312 68.352-101.312 68.352l-160.768 159.36zM331.98464 373.248c2.24 2.816 5.12 5.632 7.36 8.448 1.152 1.152 2.24 2.304 3.392 3.968 1.152 1.152 2.24 2.816 3.968 3.968 3.392 3.968 7.36 7.36 10.752 11.328l128.448-109.632-12.992-12.992S424.78464 225.792 373.32864 209.28C317.26464 191.36 265.16864 192.448 265.16864 192.448s-8.448-3.392-7.872 8.96c0.512 20.992 11.328 66.176 24.896 94.4 3.392 7.36 7.936 28.288 49.792 77.44z m490.688 188.736c41.344-97.216-52.608-64.448-91.648-51.456 8.448 10.752 17.536 18.112 33.344 34.496-69.056 98.88-157.888 111.36-157.888 111.36s-15.872-16.448-24.96-26.048c-31.616 44.672-29.376 86.464 8.576 85.888 134.08-2.816 229.76-148.032 232.576-154.24z m32.256 133.888a68.672 68.672 0 0 1-24.32-7.296c-24.896-29.952-49.28-57.664-49.28-57.664s-39.04 42.368-83.2 59.904c17.6 20.352 33.408 35.584 48.128 47.488 0.64 0.512 0.64 1.088 1.152 1.664 12.48 14.08 18.688 25.984 21.504 36.16a38.976 38.976 0 0 0 2.304 19.2c0.512 4.48 1.088 9.6 5.12 10.752 15.232 23.68 50.88 40.704 95.616-3.968 34.56-33.92 34.56-111.872-17.024-106.24z m-432.96-37.248S331.40864 645.632 261.77664 547.2c15.872-16.384 25.472-23.68 33.984-34.432-39.616-12.992-135.296-45.76-92.8 51.392 2.24 5.632 99.584 151.424 236.544 154.24 38.528 1.152 40.768-41.216 8.512-85.888-10.24 9.6-26.048 26.048-26.048 26.048z m-177.152-25.472s-24.32 27.712-49.792 57.6a61.632 61.632 0 0 1-24.96 7.424c-52.608-5.696-52.608 72.32-18.048 106.24 45.248 44.032 81.472 27.648 97.28 3.904 3.456-3.392 4.608-8.96 5.76-10.688a33.408 33.408 0 0 0 2.24-19.2c2.816-10.24 9.024-22.656 22.08-36.224 0.512-0.576 0.512-1.088 1.088-1.664 14.72-12.416 31.168-27.136 48.64-47.488-45.248-17.536-84.288-59.904-84.288-59.904z" fill="#ffffff" p-id="3709"></path></svg>