<?xml version="1.0" standalone="no"?><!DOCTYPE svg PUBLIC "-//W3C//DTD SVG 1.1//EN" "http://www.w3.org/Graphics/SVG/1.1/DTD/svg11.dtd"><svg t="1719032333745" class="icon" viewBox="0 0 1024 1024" version="1.1" xmlns="http://www.w3.org/2000/svg" p-id="6858" xmlns:xlink="http://www.w3.org/1999/xlink" width="200" height="200"><path d="M876 938.666667h-65.333333v-158.226667a213.333333 213.333333 0 0 0-87.86-172.533333L590.94 512l131.866667-95.906667A213.333333 213.333333 0 0 0 810.666667 243.56V85.333333h65.333333a21.333333 21.333333 0 0 0 0-42.666666H149.333333a21.333333 21.333333 0 0 0 0 42.666666h64v158.226667a213.333333 213.333333 0 0 0 87.86 172.533333L433.06 512l-131.866667 95.906667A213.333333 213.333333 0 0 0 213.333333 780.44V938.666667h-64a21.333333 21.333333 0 0 0 0 42.666666h726.666667a21.333333 21.333333 0 0 0 0-42.666666zM420.42 335.086667a21.333333 21.333333 0 0 1-30.173333 0l-17.673334-17.673334A106 106 0 0 1 341.333333 242v-50a21.333333 21.333333 0 0 1 42.666667 0v50a63.586667 63.586667 0 0 0 18.746667 45.253333l17.673333 17.673334a21.333333 21.333333 0 0 1 0 30.16zM682.666667 832a21.333333 21.333333 0 0 1-42.666667 0v-50a63.586667 63.586667 0 0 0-18.746667-45.253333l-17.673333-17.673334a21.333333 21.333333 0 0 1 30.173333-30.173333l17.673334 17.673333A106 106 0 0 1 682.666667 782z" fill="#ffffff" p-id="6859"></path></svg>