<?xml version="1.0" standalone="no"?><!DOCTYPE svg PUBLIC "-//W3C//DTD SVG 1.1//EN" "http://www.w3.org/Graphics/SVG/1.1/DTD/svg11.dtd"><svg t="1717696604832" class="icon" viewBox="0 0 2717 1024" version="1.1" xmlns="http://www.w3.org/2000/svg" p-id="7907" xmlns:xlink="http://www.w3.org/1999/xlink" width="530.6640625" height="200"><path d="M352.777486 278.335791a46.542471 46.542471 0 0 1 3.577665-35.711007l8.927752 4.923392a37.319315 37.319315 0 0 0-4.431054 16.969293 34.430925 34.430925 0 0 0 1.477018 10.962754z m16.115905-36.104879l-8.041542-6.334765a56.422078 56.422078 0 0 1 6.76146-6.761459l6.564523 7.910251a31.73947 31.73947 0 0 0-5.284441 5.284441z" fill="#FFFFFF" p-id="7908"></path><path d="M2355.05558 142.220399h-1710.058337a390.58914 390.58914 0 0 0-221.191614-67.187897A401.026732 401.026732 0 0 0 24.058978 477.437784v1.24726a400.961087 400.961087 0 0 0 398.368101 403.718187h1.214436a393.871402 393.871402 0 0 0 222.012181-67.220719h1709.401884a336.431823 336.431823 0 0 0 0-672.66671z" fill="#79E8D0" p-id="7909"></path><path d="M2031.719982 415.895378l45.951664 224.670812a22.188089 22.188089 0 0 0 16.214372 10.831464h262.580935c8.140009 0 13.522918-5.415732 16.247195-13.522918l45.951664-224.703635c2.691455-5.415732-2.691455-13.522918-10.831464-16.247196h-8.107186L2323.841272 415.895378c-5.382909 2.691455-10.798641 0-16.214373-5.415732l-70.404513-81.235977a16.411308 16.411308 0 0 0-21.630104-2.691454l-2.724278 2.691454-67.680236 81.235977c-5.415732 5.415732-10.831464 8.107186-16.214372 5.415732l-78.5117-18.971473a15.393807 15.393807 0 0 0-18.93865 10.831464z" fill="#E6E6E6" p-id="7910"></path><path d="M2226.555036 272.42772a37.8773 37.8773 0 0 0-37.910123 37.8773 37.910122 37.910122 0 0 0 75.787422 0A37.8773 37.8773 0 0 0 2226.555036 272.42772zM2421.422912 348.215142a37.910122 37.910122 0 1 0 37.910122 37.8773 37.8773 37.8773 0 0 0-37.910122-37.8773zM2020.822873 348.182319a37.910122 37.910122 0 0 0-37.910122 37.910123 37.910122 37.910122 0 0 0 75.787422 0 37.910122 37.910122 0 0 0-37.8773-37.910123z" fill="#E6E6E6" p-id="7911"></path><path d="M1754.598628 408.543112l-72.209757-83.238157a16.772357 16.772357 0 0 0-22.188089-2.757099l-2.789922 2.757099-69.35419 83.238157a26.258093 26.258093 0 0 1-7.713315 5.612667h181.87012a25.96269 25.96269 0 0 1-7.614847-5.612667zM1857.234951 394.659145h-8.336945l-77.658311 19.430989a9.846785 9.846785 0 0 1-5.743958 0.984678l-87.144048 240.392846h126.170139c8.336945 0 13.883967-5.547022 16.641067-13.851144l47.1661-230.28348c2.789922-5.547022-2.7571-13.883967-11.094044-16.673889zM1571.481249 414.090134l-80.481057-19.430989a15.787679 15.787679 0 0 0-19.398166 11.126867v8.304122l47.1661 230.28348a22.778896 22.778896 0 0 0 16.641067 11.094044h142.942496l-99.124303-240.885185a9.846785 9.846785 0 0 1-7.746137-0.492339z" fill="#ECF752" p-id="7912"></path><path d="M1765.856786 414.155779h-3.544843a13.129047 13.129047 0 0 0 3.282262 0.919033zM1579.063273 414.155779l0.164113 0.426694a8.53388 8.53388 0 0 0 1.181615-0.426694z" fill="#ECF752" p-id="7913"></path><path d="M1762.27912 414.155779H1580.409001a8.53388 8.53388 0 0 1-1.181615 0.426694l99.124303 240.885185 87.144048-240.392846a13.129047 13.129047 0 0 1-3.216617-0.919033z" fill="#ECF752" p-id="7914"></path><path d="M1673.953459 270.327072a38.369639 38.369639 0 0 0-38.402462 38.369639 38.369639 38.369639 0 0 0 76.739278 0A38.402462 38.402462 0 0 0 1673.953459 270.327072zM1871.348676 347.099173a38.369639 38.369639 0 1 0 38.369639 38.369639 38.369639 38.369639 0 0 0-38.369639-38.369639zM1465.726777 347.099173a38.369639 38.369639 0 0 0-38.369639 38.369639 38.369639 38.369639 0 0 0 76.739278 0 38.369639 38.369639 0 0 0-38.369639-38.369639z" fill="#EFF275" p-id="7915"></path><path d="M1197.008013 413.564972l-72.734919-83.927431a16.93647 16.93647 0 0 0-22.385024-2.822745l-2.789923 2.822745-69.912174 83.927431a26.455029 26.455029 0 0 1-7.77896 5.64549h183.379961a26.455029 26.455029 0 0 1-7.778961-5.64549zM1300.497724 399.582537h-8.369767l-78.347586 19.69357a9.846785 9.846785 0 0 1-5.776781 0.984679l-87.866145 242.395025H1247.25944c8.40259 0 13.982435-5.612667 16.772357-13.982435l47.559972-232.187191c2.921213-5.711135-2.691455-14.080903-11.094045-16.903648zM1012.380794 419.17764l-81.104687-19.693571a15.951792 15.951792 0 0 0-19.69357 11.192513v8.40259l47.559972 232.187191a22.975832 22.975832 0 0 0 16.772357 11.192513h144.124111l-99.912046-242.887365a9.846785 9.846785 0 0 1-7.746137-0.393871z" fill="#ECF752" p-id="7916"></path><path d="M1208.331816 419.243285h-3.544842a12.767998 12.767998 0 0 0 3.282261 0.919033z" fill="#E6E6E6" p-id="7917"></path><path d="M1020.028463 419.243285l0.196936 0.426694a8.53388 8.53388 0 0 0 1.181614-0.426694z" fill="#ECF752" p-id="7918"></path><path d="M1204.786974 419.243285h-183.379961a8.53388 8.53388 0 0 1-1.181614 0.426694l99.912046 242.887364L1207.8723 420.129495a12.767998 12.767998 0 0 1-3.085326-0.88621z" fill="#ECF752" p-id="7919"></path><path d="M1113.113405 270.885057a39.190205 39.190205 0 0 0-39.190205 39.157382 39.157382 39.157382 0 1 0 78.314764 0 39.157382 39.157382 0 0 0-39.124559-39.157382zM1314.512982 349.232643a39.190205 39.190205 0 1 0 39.157381 39.157382 39.190205 39.190205 0 0 0-39.157381-39.157382zM900.488493 349.232643a39.157382 39.157382 0 0 0-39.157382 39.157382 39.157382 39.157382 0 1 0 78.314764 0 39.157382 39.157382 0 0 0-39.157382-39.157382z" fill="#EFF275" p-id="7920"></path><path d="M423.674338 101.750112a376.803641 376.803641 0 0 1 0 753.410347 376.803641 376.803641 0 0 1 0-753.410347" fill="#FFFFFF" p-id="7921"></path><path d="M227.52638 423.411757l45.951663 224.802103a22.220912 22.220912 0 0 0 16.411309 10.831463h262.580935c8.107186 0 13.522918-5.415732 16.247195-13.55574l45.951663-224.76928c2.724277-5.415732-2.691455-13.555741-10.831463-16.411309h-8.107186L520.008719 423.411757c-5.415732 2.724277-10.831464 0-16.411309-5.415732L433.258542 336.792871a16.411308 16.411308 0 0 0-21.662927-2.724277l-2.724277 2.724277L341.355215 418.028848c-5.415732 5.415732-10.831464 8.140009-16.411308 5.415732l-78.446055-18.93865a15.393807 15.393807 0 0 0-18.971472 10.831463z" fill="#ECF752" p-id="7922"></path><path d="M422.525547 279.878454a37.910122 37.910122 0 0 0-37.910123 37.910122 37.910122 37.910122 0 1 0 75.820245 0 37.942945 37.942945 0 0 0-37.910122-37.910122zM617.524713 355.731521a37.942945 37.942945 0 1 0 37.910123 37.910123 37.910122 37.910122 0 0 0-37.910123-37.910123zM216.629271 355.731521a37.910122 37.910122 0 0 0-37.910122 37.910123 37.910122 37.910122 0 1 0 75.820245 0A37.910122 37.910122 0 0 0 216.629271 355.731521z" fill="#EFF275" p-id="7923"></path></svg>