<?xml version="1.0" standalone="no"?><!DOCTYPE svg PUBLIC "-//W3C//DTD SVG 1.1//EN" "http://www.w3.org/Graphics/SVG/1.1/DTD/svg11.dtd"><svg t="1717696874910" class="icon" viewBox="0 0 2717 1024" version="1.1" xmlns="http://www.w3.org/2000/svg" p-id="10144" xmlns:xlink="http://www.w3.org/1999/xlink" width="530.6640625" height="200"><path d="M2376.554395 229.03622H668.104366a389.801398 389.801398 0 0 0-220.994679-67.187896A400.796974 400.796974 0 0 0 47.921021 564.253606v1.214437a400.829797 400.829797 0 0 0 397.974229 403.718187h1.214437a393.116482 393.116482 0 0 0 221.782421-67.187897h1707.662287a336.464645 336.464645 0 0 0 0-672.699532z" fill="#FB8275" p-id="10145"></path><path d="M435.457658 188.762869a376.803641 376.803641 0 0 1 0 753.410347 376.803641 376.803641 0 0 1 0-753.410347" fill="#FFFFFF" p-id="10146"></path><path d="M619.756651 467.361241a32.658504 32.658504 0 0 0-23.172767 53.205462l-3.282262 14.343484a64.890313 64.890313 0 0 1-128.008206-9.846785l-3.282261-40.700045a48.150779 48.150779 0 1 0-53.17264 0l-3.282261 40.700045a64.923136 64.923136 0 0 1-128.008206 9.846785l-3.282262-14.343484a32.822617 32.822617 0 0 0 4.562344-33.872941 32.822617 32.822617 0 1 0-43.161741 43.424322l29.080838 205.797808h341.355215l29.080839-205.797808a32.822617 32.822617 0 0 0-15.229694-62.756843z" fill="#F9C85D" p-id="10147"></path><path d="M216.104109 500.118213a32.822617 32.822617 0 1 0 32.822617-32.822617 32.822617 32.822617 0 0 0-32.822617 32.822617z" fill="#F9C85D" p-id="10148"></path><path d="M619.756651 467.361241a32.658504 32.658504 0 0 0-23.172767 53.205462l-3.282262 14.343484a64.890313 64.890313 0 0 1-128.008206-9.846785l-3.282261-40.700045a48.117956 48.117956 0 0 0-15.623566-87.04558 53.730624 53.730624 0 0 0-10.470415-0.886211v339.484326h170.677608l29.080838-205.797808a32.822617 32.822617 0 0 0 19.069941-24.321559 33.511892 33.511892 0 0 0-34.759152-38.435284z" fill="#FFB103" p-id="10149"></path><path d="M589.100327 500.118213a32.822617 32.822617 0 1 0 32.822617-32.822617 32.560036 32.560036 0 0 0-32.822617 32.822617z m-202.18732-56.619014a48.380537 48.380537 0 1 0 48.380537-48.446183 48.314892 48.314892 0 0 0-48.380537 48.446183z" fill="#F9C85D" p-id="10150"></path><path d="M272.657478 477.372139c-3.873069 20.021796-20.44849 37.286493-44.080774 48.216424a32.002051 32.002051 0 0 0 20.218732 7.253799 32.822617 32.822617 0 0 0 32.822616-32.822617 31.378422 31.378422 0 0 0-8.960574-22.647606z m372.996218 0.229759c-4.529521 19.69357-21.334701 36.826976-44.966985 47.29739a32.527213 32.527213 0 0 0 53.829091-24.781075 33.216488 33.216488 0 0 0-8.862106-22.516315z m-176.487211-68.927496a31.279954 31.279954 0 0 1 1.575486 9.091865c0 22.746073-28.391564 41.38932-63.380473 41.38932a91.903327 91.903327 0 0 1-18.18373-1.838067 48.380537 48.380537 0 0 0 94.726072-13.851144 50.448362 50.448362 0 0 0-14.737355-34.759151z" fill="#FFB103" p-id="10151"></path><path d="M232.449772 485.774729c1.148792 1.838067 5.218796 1.37855 9.551382-1.115969s6.794282-5.940894 5.678313-7.746137-5.251619-1.37855-9.551382 1.148791-6.597346 5.908071-5.678313 7.713315z m394.46221-1.115969c4.299763 2.494519 8.40259 2.954036 9.518558 1.115969s-1.575486-5.218796-5.678312-7.713315c-5.448554-3.282262-10.207834-4.562344-11.586384-2.297583s1.838067 6.564523 7.746138 8.894929z m-211.049427-75.065325c0 2.527341 8.172832 4.792102 18.413488 4.792103s18.380665-2.067825 18.380666-4.792103-8.172832-4.759279-18.380666-4.759279-18.282198 2.166293-18.282197 4.759279z" fill="#F7EAD0" p-id="10152"></path><path d="M449.833964 655.205077h-27.242772a11.15969 11.15969 0 0 1 0-22.286557h27.242772a11.126867 11.126867 0 0 1 11.126867 11.126868 11.028399 11.028399 0 0 1-11.126867 11.159689z" fill="#DA3329" p-id="10153"></path><path d="M449.833964 632.688762h-14.54042v22.516315h14.54042a11.15969 11.15969 0 0 0 11.126867-11.159689 10.897109 10.897109 0 0 0-11.126867-11.356626z" fill="#C11B16" p-id="10154"></path><path d="M2446.368101 458.170908a35.87512 35.87512 0 0 0-25.470351 58.457081l-3.741778 15.754856a71.290724 71.290724 0 0 1-140.480801-10.765818l-3.479197-44.704404a52.910058 52.910058 0 1 0-58.391435 0l-3.741779 44.704404a71.290724 71.290724 0 0 1-140.4808 10.765818l-3.741778-15.754856a35.842298 35.842298 0 1 0-42.439644 10.503237l31.936407 226.049362h374.801461l31.936406-226.049362a36.104879 36.104879 0 0 0-16.706711-68.927495z" fill="#F9C85D" p-id="10155"></path><path d="M2002.96737 494.144496a35.940765 35.940765 0 1 0 35.907943-36.104878 36.104879 36.104879 0 0 0-35.907943 36.104878zM2412.692096 494.144496a35.940765 35.940765 0 1 0 35.907942-36.104878 35.776652 35.776652 0 0 0-35.907942 36.104878z m-222.077826-62.362972a53.139817 53.139817 0 1 0 53.139817-53.205461 53.041349 53.041349 0 0 0-53.139817 53.369575z" fill="#F9C85D" p-id="10156"></path><path d="M2065.100583 469.166485c-4.26694 21.991153-22.483493 40.962626-48.413359 52.975704a35.021732 35.021732 0 0 0 22.188089 7.975895 36.104879 36.104879 0 0 0 36.104878-36.104878 34.430925 34.430925 0 0 0-9.879608-24.846721zM2474.825309 469.363421c-4.989038 21.728572-23.468171 40.470287-49.430861 51.958202a35.74383 35.74383 0 0 0 59.080711-27.242772A36.564395 36.564395 0 0 0 2474.825309 469.363421z m-193.883197-75.492019a34.069876 34.069876 0 0 1 1.739598 9.846785c0 24.978011-31.214309 45.459324-69.61677 45.459324a102.111161 102.111161 0 0 1-19.956151-1.969357 53.139817 53.139817 0 0 0 104.047695-15.262516 55.470222 55.470222 0 0 0-16.214372-38.074236z" fill="#FFB103" p-id="10157"></path><path d="M2020.921341 478.422463c1.247259 2.00218 5.743958 1.477018 10.470415-1.247259s7.483557-6.564523 6.236297-8.501058-5.743958-1.50984-10.470415 1.247259-7.220976 6.498878-6.236297 8.501058z m433.258542-1.247259c4.759279 2.724277 9.223155 3.282262 10.470415 1.247259s-1.739599-5.743958-6.236297-8.501058c-5.973716-3.51202-11.225335-4.989038-12.702353-2.494519s2.00218 7.253798 8.468235 9.846785z m-231.79332-82.450414c0 2.7571 8.960574 5.251619 20.18591 5.251619s20.218732-2.231938 20.218732-5.251619-8.993397-5.218796-20.218732-5.218796-20.021796 2.231938-20.021797 5.218796z" fill="#F7EAD0" p-id="10158"></path><path d="M2259.705879 664.493878h-29.934227a12.242836 12.242836 0 0 1 0-24.485672h29.934227a12.275659 12.275659 0 0 1 12.242836 12.242836 12.111546 12.111546 0 0 1-12.242836 12.242836z" fill="#DA3329" p-id="10159"></path><path d="M2259.705879 639.778447h-15.951792v24.715431h15.951792a12.242836 12.242836 0 0 0 12.242836-12.242836 12.013078 12.013078 0 0 0-12.242836-12.472595z" fill="#C11B16" p-id="10160"></path><path d="M2258.524264 667.841785h-30.918905a12.833643 12.833643 0 0 1 0-25.667287h30.918905a12.833643 12.833643 0 0 1 0 25.667287z" fill="#515151" p-id="10161"></path><path d="M2258.524264 642.141676H2241.78473v25.700109h16.608244a12.866466 12.866466 0 0 0 0-25.700109z" fill="#515151" p-id="10162"></path><path d="M1331.416629 460.238733a35.87512 35.87512 0 0 0-25.437528 58.358613l-3.741778 15.754856a71.323546 71.323546 0 0 1-140.513623-10.765818l-3.479197-44.704404a52.910058 52.910058 0 1 0-58.391435 0L1096.275402 523.684852a71.290724 71.290724 0 0 1-140.4808 10.765818L951.855888 518.597346a35.87512 35.87512 0 1 0-42.406821 10.503237l31.936406 226.049363H1316.186935l31.936406-226.049363a36.104879 36.104879 0 0 0-16.706712-68.927495z" fill="#F9C85D" p-id="10163"></path><path d="M888.015898 496.212321a35.940765 35.940765 0 1 0 35.907943-36.104878 36.104879 36.104879 0 0 0-35.907943 36.104878z" fill="#F9C85D" p-id="10164"></path><path d="M1331.416629 460.238733a35.87512 35.87512 0 0 0-25.437528 58.358613l-3.741778 15.754856a71.323546 71.323546 0 0 1-140.513623-10.765818l-3.479197-44.704404a52.877236 52.877236 0 0 0-17.461632-95.677928 61.739342 61.739342 0 0 0-11.487916-0.984679V755.248413h187.417142l31.936406-226.049362a36.104879 36.104879 0 0 0 20.94083-26.750432 36.794153 36.794153 0 0 0-38.172704-42.209886z" fill="#FFB103" p-id="10165"></path><path d="M1297.740624 496.212321a35.940765 35.940765 0 1 0 35.907943-36.104878 35.776652 35.776652 0 0 0-35.907943 36.104878z m-222.077825-62.362972A53.139817 53.139817 0 1 0 1128.802616 380.742355a53.041349 53.041349 0 0 0-53.139817 53.271107z" fill="#F9C85D" p-id="10166"></path><path d="M950.149112 471.23431c-4.26694 21.991153-22.45067 40.962626-48.41336 52.975703a35.021732 35.021732 0 0 0 22.188089 7.975896 36.104879 36.104879 0 0 0 35.940766-36.104878 34.430925 34.430925 0 0 0-9.715495-24.846721z m409.724726 0.262581c-4.989038 21.728572-23.468171 40.470287-49.430861 51.958202a36.104879 36.104879 0 0 0 23.20559 8.730816 35.776652 35.776652 0 0 0 35.940766-36.104878 36.564395 36.564395 0 0 0-9.715495-24.58414z m-193.883198-75.688955a34.069876 34.069876 0 0 1 1.739599 9.846785c0 24.978011-31.181486 45.459324-69.61677 45.459325a99.583819 99.583819 0 0 1-19.956151-2.00218 53.139817 53.139817 0 0 0 104.047695-15.229694 55.470222 55.470222 0 0 0-16.214373-38.074236z" fill="#FFB103" p-id="10167"></path><path d="M905.904225 480.490288c1.247259 2.00218 5.743958 1.477018 10.470414-1.24726s7.483557-6.564523 6.236298-8.501057-5.711135-1.50984-10.470415 1.247259-7.15533 6.498878-6.236297 8.501058z m433.4883-1.280082c4.759279 2.724277 9.255978 3.282262 10.503238 1.247259s-1.772421-5.743958-6.236298-8.501058c-6.006539-3.51202-11.258158-4.989038-12.735175-2.494518s2.00218 7.253798 8.468235 9.846785z m-231.79332-82.450414c0 2.7571 8.960574 5.251619 20.218732 5.251619s20.185909-2.231938 20.185909-5.251619-8.960574-5.218796-20.185909-5.218796-20.218732 2.330406-20.218732 5.251619z" fill="#F7EAD0" p-id="10168"></path><path d="M1144.78723 666.561703h-29.967049a12.242836 12.242836 0 0 1 0-24.485672h29.967049a12.242836 12.242836 0 0 1 12.210013 12.242836 12.078723 12.078723 0 0 1-12.210013 12.242836z" fill="#DA3329" p-id="10169"></path><path d="M1144.78723 641.846272h-15.984614v24.715431h15.984614a12.242836 12.242836 0 0 0 12.210013-12.242836 11.980255 11.980255 0 0 0-12.210013-12.472595z" fill="#C11B16" p-id="10170"></path><path d="M1886.381435 457.711392a35.842298 35.842298 0 0 0-25.470351 58.424258l-3.741778 15.754856a71.290724 71.290724 0 0 1-140.4808-10.732996L1713.340599 476.420283a53.205462 53.205462 0 0 0 22.45067-55.798448A52.516187 52.516187 0 0 0 1695.714854 380.742355a52.877236 52.877236 0 0 0-40.896981 95.645106L1650.977627 521.15751a71.323546 71.323546 0 0 1-140.513623 10.732996l-3.741778-15.754856a35.842298 35.842298 0 0 0-25.437528-58.424258 36.104879 36.104879 0 0 0-16.969293 68.927495l31.936406 226.049362h374.899929l31.936407-226.049362a36.104879 36.104879 0 0 0-16.706712-68.927495z" fill="#F9C85D" p-id="10171"></path><path d="M1442.947881 493.68498a36.104879 36.104879 0 1 0 35.940766-36.104879 36.104879 36.104879 0 0 0-35.940766 36.104879z" fill="#F9C85D" p-id="10172"></path><path d="M1886.381435 457.711392a35.842298 35.842298 0 0 0-25.470351 58.424258l-3.741778 15.754856a71.290724 71.290724 0 0 1-140.4808-10.732996L1713.340599 476.420283a53.205462 53.205462 0 0 0 22.45067-55.798448A52.516187 52.516187 0 0 0 1695.714854 380.742355a58.752484 58.752484 0 0 0-11.455094-1.017501v372.963395h187.38432l32.067696-226.049362a36.104879 36.104879 0 0 0 20.973653-26.71761 36.794153 36.794153 0 0 0-38.172704-42.209885z" fill="#FFB103" p-id="10173"></path><path d="M1852.672607 493.68498a36.104879 36.104879 0 1 0 35.940766-36.104879 35.809475 35.809475 0 0 0-35.940766 36.104879z m-222.077825-62.198859A53.172639 53.172639 0 1 0 1683.800244 378.280659a53.041349 53.041349 0 0 0-53.205462 53.205462z" fill="#F9C85D" p-id="10174"></path><path d="M1505.081095 468.706968c-4.234118 21.958331-22.45067 40.962626-48.41336 52.942881a35.1202 35.1202 0 0 0 22.220912 7.975896 36.104879 36.104879 0 0 0 35.940765-36.104878 34.562216 34.562216 0 0 0-9.748317-24.813899z m409.724726 0.229759c-4.989038 21.728572-23.435348 40.470287-49.233925 51.958202a35.74383 35.74383 0 0 0 59.08071-27.209949 36.465927 36.465927 0 0 0-9.846785-24.748253z m-193.883198-75.688955a33.052375 33.052375 0 0 1 1.739599 9.846785c0 24.978011-31.181486 45.459324-69.61677 45.459325a102.308097 102.308097 0 0 1-19.956151-2.00218 53.139817 53.139817 0 0 0 104.047695-15.229694 55.174819 55.174819 0 0 0-16.214373-38.074236z" fill="#FFB103" p-id="10175"></path><path d="M1460.934675 477.930124c1.247259 2.00218 5.711135 1.50984 10.470415-1.24726s7.483557-6.564523 6.236297-8.501057-5.743958-1.477018-10.470415 1.247259-7.253798 6.498878-6.236297 8.501058z m433.258543-1.24726c4.726457 2.7571 9.223155 3.282262 10.470414 1.24726s-1.739599-5.743958-6.236297-8.501058c-5.973716-3.479197-11.225335-4.989038-12.735175-2.494519s2.00218 7.253798 8.501058 9.846785z m-231.826143-82.417591c0 2.724277 8.993397 5.251619 20.218732 5.251619s20.218732-2.264761 20.218732-5.251619-8.993397-5.251619-20.218732-5.251618-20.054619 2.231938-20.054619 5.251618z" fill="#F7EAD0" p-id="10176"></path><path d="M1699.719213 664.034361h-29.934227a12.242836 12.242836 0 0 1 0-24.485672h29.934227a12.275659 12.275659 0 0 1 12.242836 12.242836 12.111546 12.111546 0 0 1-12.242836 12.242836z" fill="#DA3329" p-id="10177"></path><path d="M1699.719213 639.286108H1683.800244v24.748253h15.984614a12.275659 12.275659 0 0 0 12.242836-12.242836 12.0459 12.0459 0 0 0-12.308481-12.505417z" fill="#C11B16" p-id="10178"></path></svg>