<?xml version="1.0" standalone="no"?><!DOCTYPE svg PUBLIC "-//W3C//DTD SVG 1.1//EN" "http://www.w3.org/Graphics/SVG/1.1/DTD/svg11.dtd"><svg t="1717696636923" class="icon" viewBox="0 0 2717 1024" version="1.1" xmlns="http://www.w3.org/2000/svg" p-id="9462" xmlns:xlink="http://www.w3.org/1999/xlink" width="530.6640625" height="200"><path d="M2363.819219 175.568177H655.36919A389.899865 389.899865 0 0 0 434.407334 108.314636 400.862619 400.862619 0 0 0 35.185845 510.785563v1.214437A400.796974 400.796974 0 0 0 433.258542 915.75101h1.24726a393.050837 393.050837 0 0 0 221.749599-67.22072h1707.563818a336.431823 336.431823 0 0 0 0-672.666709z" fill="#FB8275" p-id="9463"></path><path d="M422.722482 135.294827a376.803641 376.803641 0 0 1 0 753.410346 376.803641 376.803641 0 0 1 0-753.410346" fill="#FFFFFF" p-id="9464"></path><path d="M607.021476 413.893198a32.625681 32.625681 0 0 0-23.172768 53.205462l-3.282261 14.310661a64.923136 64.923136 0 0 1-128.008206-9.846785l-3.282262-40.700045a48.183602 48.183602 0 1 0-53.139816 0l-3.282262 40.700045a64.923136 64.923136 0 0 1-128.008206 9.846785l-3.282261-14.310661a32.658504 32.658504 0 1 0-38.63222 9.551382l29.080838 205.764985h341.355215l29.080839-205.764985A32.822617 32.822617 0 0 0 607.218411 413.893198z" fill="#F9C85D" p-id="9465"></path><path d="M203.500224 446.617347a32.822617 32.822617 0 1 0 32.822617-32.822617 32.822617 32.822617 0 0 0-32.822617 32.822617z" fill="#F9C85D" p-id="9466"></path><path d="M607.021476 413.893198a32.625681 32.625681 0 0 0-23.172768 53.205462l-3.282261 14.310661a64.923136 64.923136 0 0 1-128.008206-9.846785l-3.282262-40.700045a48.117956 48.117956 0 0 0-15.886146-87.078402 53.763446 53.763446 0 0 0-10.470415-0.919034v339.549972h170.677607l29.080839-205.764985a32.822617 32.822617 0 0 0 19.06994-24.354382 33.479069 33.479069 0 0 0-34.759151-38.402462z" fill="#FFB103" p-id="9467"></path><path d="M576.365152 446.617347a32.822617 32.822617 0 1 0 32.822616-32.822617 32.625681 32.625681 0 0 0-32.822616 32.822617zM374.177832 389.998333a48.41336 48.41336 0 1 0 48.41336-48.41336A48.314892 48.314892 0 0 0 374.177832 389.998333z" fill="#F9C85D" p-id="9468"></path><path d="M259.922303 423.871274c-3.905891 20.021796-20.3172 37.319315-44.047952 48.216424a31.772293 31.772293 0 0 0 20.218732 7.286621 32.822617 32.822617 0 0 0 32.822617-32.822617 31.47689 31.47689 0 0 0-8.993397-22.680428z m372.996217 0.229758c-4.529521 19.69357-21.334701 36.859799-44.966985 47.297391a32.494391 32.494391 0 0 0 53.829092-24.781076 33.282133 33.282133 0 0 0-8.862107-22.516315z m-176.48721-68.927495a31.279954 31.279954 0 0 1 1.575485 9.091865c0 22.746073-28.391564 41.38932-63.380473 41.389319a94.529136 94.529136 0 0 1-18.150907-1.805243 48.380537 48.380537 0 0 0 94.726072-13.883967 50.317072 50.317072 0 0 0-14.770177-34.759152z" fill="#FFB103" p-id="9469"></path><path d="M219.714597 432.306686c1.148792 1.805244 5.218796 1.345727 9.551382-1.148791s6.827104-5.908071 5.678312-7.713315-5.218796-1.37855-9.551381 1.115969-6.564523 5.908071-5.678313 7.746137z m394.5935-1.148791c4.299763 2.494519 8.40259 2.954036 9.551381 1.148791s-1.608308-5.251619-5.711135-7.746137c-5.448554-3.282262-10.207834-4.529521-11.553561-2.264761s1.805244 6.564523 7.713315 8.862107z m-211.049427-75.032502c0 2.494519 8.172832 4.759279 18.413488 4.759279s18.413488-2.035002 18.413489-4.759279-8.205654-4.792102-18.413489-4.792102-18.413488 2.067825-18.413488 4.792102z" fill="#F7EAD0" p-id="9470"></path><path d="M437.131611 601.704212h-27.275595a11.15969 11.15969 0 0 1 0-22.286557h27.275595a11.192512 11.192512 0 0 1 11.126867 11.15969 11.028399 11.028399 0 0 1-11.126867 11.126867z" fill="#DA3329" p-id="9471"></path><path d="M437.131611 579.187897h-14.540419v22.516315h14.540419a11.15969 11.15969 0 0 0 11.126867-11.126867 10.962754 10.962754 0 0 0-11.126867-11.389448z" fill="#C11B16" p-id="9472"></path><path d="M2438.720431 400.042054a37.352138 37.352138 0 0 0-26.553497 60.656196l-3.873069 16.411308a73.719597 73.719597 0 0 1-145.338547-11.29098l-3.676133-46.312712a55.076351 55.076351 0 0 0 22.975831-57.800628A54.419899 54.419899 0 1 0 2199.115328 419.473043l-3.676133 46.312712a73.75242 73.75242 0 0 1-145.37137 11.323803l-3.840246-16.411308a37.483428 37.483428 0 0 0-5.842426-52.516187 36.958267 36.958267 0 0 0-52.122316 5.875248 37.450606 37.450606 0 0 0 13.982435 57.43958l33.019553 234.944291h387.306878l33.052375-234.845823a37.417783 37.417783 0 0 0-16.903647-71.553305z" fill="#CDCDCD" p-id="9473"></path><path d="M1980.352587 437.197256a37.220847 37.220847 0 1 0 37.220847-37.450606 37.352138 37.352138 0 0 0-37.220847 37.450606z" fill="#CDCDCD" p-id="9474"></path><path d="M2438.720431 400.042054a37.352138 37.352138 0 0 0-26.553497 60.656196l-3.873069 16.411308a73.719597 73.719597 0 0 1-145.338547-11.29098l-3.676133-46.312712a55.076351 55.076351 0 0 0 22.975831-57.800628 53.763446 53.763446 0 0 0-53.139816-42.669402v387.306878h193.653439l33.052375-234.845823a37.450606 37.450606 0 0 0-17.297519-71.553305z" fill="#8A8A8A" p-id="9475"></path><path d="M2403.764344 437.197256a37.155202 37.155202 0 1 0 37.155202-37.38496 37.25367 37.25367 0 0 0-37.155202 37.38496z m-229.758318-64.397974A55.109174 55.109174 0 1 0 2201.675492 324.943907a55.174819 55.174819 0 0 0-27.505353 47.855375z" fill="#CDCDCD" p-id="9476"></path><path d="M2044.48798 411.431502c-4.431053 22.975832-22.975832 42.669402-49.988845 55.010706a36.761331 36.761331 0 0 0 22.975831 8.238477 37.450606 37.450606 0 0 0 26.914546-63.282006zM2245.066991 425.906276a55.503045 55.503045 0 0 0 22.549138-92.789538 31.247131 31.247131 0 0 1 1.805244 10.40477c0 26.028335-32.297455 47.1661-72.209757 47.1661a104.474389 104.474389 0 0 1-20.711071-2.002179A54.977883 54.977883 0 0 0 2245.066991 425.906276zM2467.93256 411.726906c-5.087506 22.58196-24.124623 41.947304-51.006347 53.861914a36.892621 36.892621 0 0 0 52.187961-4.365408 37.450606 37.450606 0 0 0-1.181614-49.496506z" fill="#8A8A8A" p-id="9477"></path><path d="M1998.897365 420.982884c0.75492 1.312905 3.282262 1.575486 6.170652 0.656452a22.155266 22.155266 0 0 0 8.697994-5.054683c2.297583-2.231938 3.282262-4.398231 2.494519-5.711135s-3.118149-1.575486-6.170652-0.656453a22.352202 22.352202 0 0 0-8.665171 5.021861c-2.330406 2.231938-3.282262 4.398231-2.527342 5.711135z m448.061543-1.345728a16.115905 16.115905 0 0 0 8.566703 2.560164c2.199115-0.229758 3.019681-1.673953 2.100647-3.708955a15.55792 15.55792 0 0 0-6.564523-6.203475 16.017437 16.017437 0 0 0-8.566703-2.527341c-2.199115 0.229758-3.019681 1.641131-2.100648 3.676133a15.55792 15.55792 0 0 0 6.564524 6.203474z m-239.605103-85.66703c0 2.986858 9.354446 5.382909 20.875184 5.382909s20.842362-2.396051 20.842362-5.382909-9.321623-5.350087-20.842362-5.350086-20.875184 2.396051-20.875184 5.350086z" fill="#F7EAD0" p-id="9478"></path><path d="M2245.821912 614.340919h-30.951728a12.833643 12.833643 0 0 1 0-25.634463h30.951728a12.833643 12.833643 0 0 1 0 25.634463z" fill="#515151" p-id="9479"></path><path d="M2245.821912 588.64081h-16.641067v25.700109h16.641067a12.866466 12.866466 0 0 0 0-25.700109z" fill="#515151" p-id="9480"></path><path d="M1318.681454 406.77069a35.87512 35.87512 0 0 0-25.470351 58.457081l-3.741778 15.722033a71.290724 71.290724 0 0 1-140.4808-10.732995L1145.509328 425.512405a52.910058 52.910058 0 1 0-58.391436 0l-3.741778 44.704404a71.290724 71.290724 0 0 1-140.4808 10.732995l-3.741779-15.722033a35.87512 35.87512 0 1 0-42.40682 10.470415l31.936406 226.049362h374.801461l31.936407-226.049362a36.104879 36.104879 0 0 0-16.739535-68.927496z" fill="#F9C85D" p-id="9481"></path><path d="M875.280723 442.744278a35.940765 35.940765 0 1 0 35.940766-36.104878 36.104879 36.104879 0 0 0-35.940766 36.104878z" fill="#F9C85D" p-id="9482"></path><path d="M1318.681454 406.77069a35.87512 35.87512 0 0 0-25.470351 58.457081l-3.741778 15.722033a71.290724 71.290724 0 0 1-140.4808-10.732995L1145.509328 425.512405a52.844413 52.844413 0 0 0-17.461633-95.677928 58.850952 58.850952 0 0 0-11.487916-0.984679V701.747548h187.417143l31.903583-226.049362a36.104879 36.104879 0 0 0 20.973652-26.71761 36.826976 36.826976 0 0 0-38.205526-42.209886z" fill="#FFB103" p-id="9483"></path><path d="M1285.005449 442.744278a36.104879 36.104879 0 1 0 35.940766-36.104878 35.809475 35.809475 0 0 0-35.940766 36.104878z m-222.077825-62.198858A53.172639 53.172639 0 1 0 1115.968972 327.339958a53.041349 53.041349 0 0 0-53.041348 53.205462z" fill="#F9C85D" p-id="9484"></path><path d="M937.413937 417.766267c-4.234118 21.958331-22.45067 40.962626-48.41336 52.942881a35.054555 35.054555 0 0 0 22.220912 8.008719 36.104879 36.104879 0 0 0 35.907942-36.104879 34.430925 34.430925 0 0 0-9.715494-24.846721z m409.724726 0.229758c-4.989038 21.728572-23.468171 40.470287-49.398039 51.958203a35.711007 35.711007 0 0 0 59.080711-27.20995 36.695686 36.695686 0 0 0-9.682672-24.748253z m-193.883198-75.688954a34.102699 34.102699 0 0 1 1.739599 9.846785c0 24.978011-31.181486 45.459324-69.616771 45.459324a102.045516 102.045516 0 0 1-19.956151-2.002179 53.139817 53.139817 0 0 0 104.047696-15.229695 55.174819 55.174819 0 0 0-16.214373-38.074235z" fill="#FFB103" p-id="9485"></path><path d="M893.234695 426.989422c1.247259 2.00218 5.743958 1.50984 10.503237-1.247259s7.483557-6.564523 6.236297-8.468235-5.743958-1.50984-10.503237 1.247259-7.220976 6.466056-6.236297 8.468235z m433.455477-1.247259c4.726457 2.7571 9.223155 3.282262 10.470415 1.247259s-1.739599-5.743958-6.236297-8.468235c-6.006539-3.51202-11.225335-5.02186-12.735175-2.527341s2.00218 7.253798 8.501057 9.846785z m-231.826142-82.417591c0 2.7571 8.993397 5.251619 20.218732 5.251619s20.218732-2.264761 20.218732-5.251619-8.993397-5.251619-20.218732-5.251619-20.218732 2.264761-20.218732 5.251619z" fill="#F7EAD0" p-id="9486"></path><path d="M1132.052055 613.09366h-29.934227a12.242836 12.242836 0 1 1 0-24.485672h29.934227a12.242836 12.242836 0 0 1 12.210013 12.242836 12.078723 12.078723 0 0 1-12.210013 12.242836z" fill="#DA3329" p-id="9487"></path><path d="M1132.052055 588.345407H1115.968972v24.748253h15.984615a12.242836 12.242836 0 0 0 12.210013-12.242836 11.980255 11.980255 0 0 0-12.111545-12.505417z" fill="#C11B16" p-id="9488"></path><path d="M1873.646259 404.210526a35.87512 35.87512 0 0 0-25.47035 58.588371l-3.741779 15.722034a71.290724 71.290724 0 0 1-140.4808-10.732996l-3.479197-44.704404a52.910058 52.910058 0 1 0-58.391435 0l-3.741779 44.704404a71.290724 71.290724 0 0 1-140.4808 10.732996l-3.741778-15.722034a35.842298 35.842298 0 1 0-42.439644 10.503238L1483.582281 699.121739h374.834284l31.936406-226.049363a36.104879 36.104879 0 0 0-16.706712-68.927495z" fill="#F9C85D" p-id="9489"></path><path d="M1430.245529 440.184114a35.940765 35.940765 0 1 0 35.907942-36.104878 36.104879 36.104879 0 0 0-35.907942 36.104878z" fill="#F9C85D" p-id="9490"></path><path d="M1873.646259 404.210526a35.87512 35.87512 0 0 0-25.47035 58.588371l-3.741779 15.722034a71.290724 71.290724 0 0 1-140.4808-10.732996l-3.479197-44.704404a52.877236 52.877236 0 0 0-17.461632-95.677928 61.739342 61.739342 0 0 0-11.487916-0.984679V699.121739h187.384319l31.936407-226.049363a36.104879 36.104879 0 0 0 20.973652-26.750432 36.794153 36.794153 0 0 0-38.172704-42.209886z" fill="#FFB103" p-id="9491"></path><path d="M1839.970255 440.184114a35.940765 35.940765 0 1 0 35.907942-36.104878 35.776652 35.776652 0 0 0-35.907942 36.104878z m-222.110649-62.362972A53.172639 53.172639 0 1 0 1671.032246 324.943907a53.074171 53.074171 0 0 0-53.17264 53.041348z" fill="#F9C85D" p-id="9492"></path><path d="M1492.378742 415.206103c-4.26694 21.991153-22.483493 40.962626-48.41336 52.942881a34.857619 34.857619 0 0 0 22.188089 8.008718 36.104879 36.104879 0 0 0 35.940766-36.104878 34.430925 34.430925 0 0 0-9.715495-24.846721z m409.724726 0.262581c-5.02186 21.728572-23.468171 40.470287-49.430861 51.958202a35.74383 35.74383 0 0 0 59.080711-27.242772 36.564395 36.564395 0 0 0-9.64985-24.71543z m-193.883197-75.688955a34.069876 34.069876 0 0 1 1.739598 9.846786c0 24.978011-31.214309 45.459324-69.61677 45.459324a102.045516 102.045516 0 0 1-19.956151-2.00218 53.139817 53.139817 0 0 0 104.047695-15.229694 55.470222 55.470222 0 0 0-16.214372-38.074236z" fill="#FFB103" p-id="9493"></path><path d="M1448.1995 424.462081c1.247259 2.00218 5.743958 1.477018 10.470415-1.24726s7.483557-6.564523 6.236297-8.501057-5.743958-1.50984-10.470415 1.247259-7.253798 6.498878-6.236297 8.501058z m433.258542-1.24726c4.759279 2.724277 9.223155 3.282262 10.470415 1.24726s-1.739599-5.743958-6.236297-8.501058c-5.973716-3.51202-11.225335-4.989038-12.702353-2.494519s1.969357 7.253798 8.468235 9.846785z m-231.79332-82.450413c0 2.7571 8.960574 5.251619 20.185909 5.251619s20.218732-2.231938 20.218732-5.251619-8.993397-5.251619-20.218732-5.251619-20.021796 2.264761-20.021796 5.251619z" fill="#F7EAD0" p-id="9494"></path><path d="M1687.082505 610.500673h-29.934226a12.242836 12.242836 0 0 1 0-24.485672H1687.082505a12.275659 12.275659 0 0 1 12.242836 12.242836A12.111546 12.111546 0 0 1 1687.082505 610.500673z" fill="#DA3329" p-id="9495"></path><path d="M1687.082505 585.818065h-15.951791V610.500673H1687.082505a12.242836 12.242836 0 0 0 12.242836-12.242836 12.013078 12.013078 0 0 0-12.242836-12.439772z" fill="#C11B16" p-id="9496"></path><path d="M1442.094493 424.1995c0.75492 1.312905 3.118149 1.575486 6.203475 0.689275a22.746073 22.746073 0 0 0 8.665171-5.087506c2.297583-2.199115 3.282262-4.398231 2.527341-5.678312s-3.282262-1.608308-6.203474-0.689275a22.253734 22.253734 0 0 0-8.665171 5.054683c-2.297583 2.199115-3.282262 4.398231-2.527342 5.678312z m448.061543-1.312905a16.017437 16.017437 0 0 0 8.566703 2.527342c2.231938-0.229758 3.019681-1.641131 2.13347-3.708956a15.754856 15.754856 0 0 0-6.564524-6.203474 16.115905 16.115905 0 0 0-8.599525-2.527342c-2.199115 0.229758-2.986858 1.641131-2.100648 3.676133a15.787679 15.787679 0 0 0 6.564524 6.236297z m-239.605103-85.66703c0 2.954036 9.321623 5.350087 20.842361 5.350087s20.875184-2.396051 20.875185-5.350087-9.354446-5.382909-20.875185-5.382909-20.776716 2.396051-20.776716 5.382909z" fill="#F7EAD0" p-id="9497"></path></svg>