<?xml version="1.0" standalone="no"?><!DOCTYPE svg PUBLIC "-//W3C//DTD SVG 1.1//EN" "http://www.w3.org/Graphics/SVG/1.1/DTD/svg11.dtd"><svg t="1717696632713" class="icon" viewBox="0 0 2717 1024" version="1.1" xmlns="http://www.w3.org/2000/svg" p-id="9235" xmlns:xlink="http://www.w3.org/1999/xlink" width="530.6640625" height="200"><path d="M2363.45817 212.001282H655.008142a389.867043 389.867043 0 0 0-220.961857-67.187897 400.764152 400.764152 0 0 0-399.188666 402.405283v1.247259a400.796974 400.796974 0 0 0 397.974229 403.718187h1.214437a393.149304 393.149304 0 0 0 221.782422-67.220719h1707.629463a336.431823 336.431823 0 0 0 0-672.666709z" fill="#FB8275" p-id="9236"></path><path d="M422.394256 171.760754a376.803641 376.803641 0 0 1 0 753.410347 376.803641 376.803641 0 0 1 0-753.410347" fill="#FFFFFF" p-id="9237"></path><path d="M606.69325 450.326303a32.625681 32.625681 0 0 0-23.172768 53.205462l-3.282262 14.343483a64.890313 64.890313 0 0 1-128.008205-9.846785l-3.282262-40.700045a48.150779 48.150779 0 1 0-53.172639 0l-3.282262 40.700045a64.890313 64.890313 0 0 1-128.008206 9.846785l-3.282261-14.343483A32.822617 32.822617 0 0 0 265.863196 469.658824a32.822617 32.822617 0 1 0-43.161741 43.424322L251.618181 718.815309h341.355215l29.080838-205.797808a32.822617 32.822617 0 0 0-15.229694-62.756843z" fill="#F9C85D" p-id="9238"></path><path d="M203.007885 483.083275a32.822617 32.822617 0 1 0 32.822617-32.822617 32.822617 32.822617 0 0 0-32.822617 32.822617z" fill="#F9C85D" p-id="9239"></path><path d="M606.69325 450.326303a32.625681 32.625681 0 0 0-23.172768 53.205462l-3.282262 14.343483a64.890313 64.890313 0 0 1-128.008205-9.846785l-3.282262-40.700045a48.117956 48.117956 0 0 0-15.689211-87.045579 56.028207 56.028207 0 0 0-10.437592-0.886211V718.815309h170.677608l29.048015-205.797808a32.822617 32.822617 0 0 0 19.102763-24.321559 33.511892 33.511892 0 0 0-34.759151-38.435284z" fill="#FFB103" p-id="9240"></path><path d="M576.036925 483.083275a32.822617 32.822617 0 1 0 32.822617-32.822617 32.560036 32.560036 0 0 0-32.822617 32.822617z m-202.187319-56.619014a48.380537 48.380537 0 1 0 48.380537-48.446183 48.282069 48.282069 0 0 0-48.380537 48.446183z" fill="#F9C85D" p-id="9241"></path><path d="M259.594077 460.337201c-3.873069 20.021796-20.44849 37.286493-44.080775 48.216424a32.002051 32.002051 0 0 0 20.218732 7.253799 32.822617 32.822617 0 0 0 32.822617-32.822617 31.411244 31.411244 0 0 0-8.960574-22.647606z m372.996217 0.229758c-4.562344 19.69357-21.367524 36.826976-44.999807 47.297391a32.560036 32.560036 0 0 0 53.861914-24.781075 33.282133 33.282133 0 0 0-8.862107-22.516316z m-176.520033-68.927495a30.262453 30.262453 0 0 1 1.608308 9.091865c0 22.746073-28.391564 41.38932-63.380473 41.38932a91.903327 91.903327 0 0 1-18.18373-1.838067 48.380537 48.380537 0 0 0 94.726072-13.851144 50.317072 50.317072 0 0 0-14.606064-34.759151z" fill="#FFB103" p-id="9242"></path><path d="M219.386371 468.739791c1.115969 1.838067 5.218796 1.37855 9.518559-1.115969s6.827104-5.908071 5.678313-7.746138-5.218796-1.345727-9.518559 1.148792-6.597346 5.908071-5.678313 7.713315z m394.560677-1.115969c4.332585 2.494519 8.40259 2.954036 9.551381 1.115969s-1.575486-5.218796-5.678312-7.713315c-5.448554-3.282262-10.207834-4.562344-11.586384-2.264761s1.805244 6.564523 7.713315 8.862107z m-211.016604-75.032502c0 2.494519 8.172832 4.759279 18.380666 4.759279s18.413488-2.035002 18.413488-4.759279-8.172832-4.792102-18.413488-4.792102-18.380665 2.035002-18.380666 4.792102z" fill="#F7EAD0" p-id="9243"></path><path d="M436.770562 638.170139h-27.275594a11.15969 11.15969 0 0 1 0-22.286557h27.275594a11.126867 11.126867 0 0 1 11.126867 11.126867 11.028399 11.028399 0 0 1-11.126867 11.15969z" fill="#DA3329" p-id="9244"></path><path d="M436.770562 615.653824h-14.540419v22.516315h14.540419a11.15969 11.15969 0 0 0 11.126867-11.15969 10.897109 10.897109 0 0 0-11.126867-11.356625z" fill="#C11B16" p-id="9245"></path><path d="M2438.228092 436.540804a37.352138 37.352138 0 0 0-26.553497 60.689018l-3.873069 16.411309a73.75242 73.75242 0 0 1-145.37137-11.455093l-3.676133-46.27989a55.076351 55.076351 0 0 0 23.139945-57.800628 54.419899 54.419899 0 1 0-83.041221 57.800628L2195.176614 502.186038a73.719597 73.719597 0 0 1-145.338547 11.29098l-3.873069-16.411309a37.483428 37.483428 0 0 0-5.809603-52.516187 36.958267 36.958267 0 0 0-52.155139 5.875249 37.483428 37.483428 0 0 0 5.842426 52.516187 36.991089 36.991089 0 0 0 8.140009 4.956215L2035.002244 742.939932h387.306878l33.052376-234.845823a37.417783 37.417783 0 0 0-17.133406-71.553305z" fill="#CDCDCD" p-id="9246"></path><path d="M1979.991538 473.663184a37.25367 37.25367 0 1 0 37.25367-37.450606 37.352138 37.352138 0 0 0-37.25367 37.450606z" fill="#CDCDCD" p-id="9247"></path><path d="M2438.228092 436.540804a37.352138 37.352138 0 0 0-26.553497 60.689018l-3.873069 16.411309a73.75242 73.75242 0 0 1-145.37137-11.455093l-3.676133-46.27989a55.076351 55.076351 0 0 0 23.139945-57.800628 54.387076 54.387076 0 0 0-41.356498-41.422143 57.144176 57.144176 0 0 0-11.783319-1.148791v387.306878h193.653439l33.052375-234.845823a37.450606 37.450606 0 0 0-17.231873-71.454837z" fill="#8A8A8A" p-id="9248"></path><path d="M2403.403295 473.663184a37.155202 37.155202 0 1 0 37.155202-37.384961 37.286493 37.286493 0 0 0-37.155202 37.384961z m-229.758318-64.397975a55.174819 55.174819 0 1 0 27.538176-47.953843 55.240464 55.240464 0 0 0-27.374063 47.953843z" fill="#CDCDCD" p-id="9249"></path><path d="M2044.126931 447.897429c-4.398231 22.975832-22.975832 42.669402-49.956023 54.977884a36.367459 36.367459 0 0 0 22.975832 8.238476 37.417783 37.417783 0 0 0 26.881723-63.249182zM2244.607475 462.339381a55.503045 55.503045 0 0 0 22.58196-92.756715 32.822617 32.822617 0 0 1 1.805244 10.371946c0 26.061158-32.297455 47.198923-72.209757 47.198923a104.507212 104.507212 0 0 1-20.711071-2.035002 54.945061 54.945061 0 0 0 68.533624 37.220848zM2467.604334 448.192833c-5.087506 22.549138-24.157446 41.914482-51.03917 53.861914a36.892621 36.892621 0 0 0 52.220784-4.398231 37.450606 37.450606 0 0 0-1.181614-49.463683z" fill="#8A8A8A" p-id="9250"></path><path d="M1998.503494 457.448811c0.75492 1.312905 3.282262 1.575486 6.203474 0.656452a22.417847 22.417847 0 0 0 8.665171-5.054683c2.297583-2.231938 3.282262-4.398231 2.527342-5.711135s-3.118149-1.575486-6.170652-0.656453a22.089621 22.089621 0 0 0-8.697994 5.021861c-2.297583 2.231938-3.282262 4.398231-2.527341 5.711135z m448.061542-1.214437a15.820501 15.820501 0 0 0 8.566703 2.527341c2.231938-0.229758 3.019681-1.641131 2.13347-3.676133a15.754856 15.754856 0 0 0-6.564523-6.203474 16.18155 16.18155 0 0 0-8.566703-2.560164c-2.231938 0.262581-3.019681 1.673953-2.13347 3.708955a15.754856 15.754856 0 0 0 6.564523 6.203475z m-239.605103-85.66703c0 2.954036 9.321623 5.382909 20.842362 5.382909s20.875184-2.428874 20.875184-5.382909-9.354446-5.382909-20.875184-5.382909-20.776716 2.428874-20.776716 5.251619z" fill="#F7EAD0" p-id="9251"></path><path d="M2245.460863 650.806847h-30.918905a12.833643 12.833643 0 0 1 0-25.667287h30.918905a12.833643 12.833643 0 0 1 0 25.667287z" fill="#515151" p-id="9252"></path><path d="M2245.460863 625.106738h-16.608244v25.700109h16.608244a12.866466 12.866466 0 0 0 0-25.700109z" fill="#515151" p-id="9253"></path><path d="M1881.458042 439.823066a37.220847 37.220847 0 0 0-34.759151 39.38714 37.647542 37.647542 0 0 0 8.205654 21.20341l-3.873069 16.411309a73.719597 73.719597 0 0 1-145.338547-11.356626l-3.676133-46.312712a55.109174 55.109174 0 0 0 22.975832-57.800628 54.419899 54.419899 0 1 0-83.008398 57.800628L1638.406565 505.468299a73.719597 73.719597 0 0 1-145.338548 11.323803l-3.840246-16.411308a37.483428 37.483428 0 0 0-5.842426-52.516187 36.925444 36.925444 0 0 0-52.122315 5.875248 37.450606 37.450606 0 0 0 13.982434 57.43958l33.019553 234.944291h387.306879l33.052375-234.813001a37.417783 37.417783 0 0 0-17.166229-71.487659z" fill="#CDCDCD" p-id="9254"></path><path d="M1423.254311 476.8798A37.220847 37.220847 0 1 0 1460.606449 439.429194a37.352138 37.352138 0 0 0-37.220847 37.450606z" fill="#CDCDCD" p-id="9255"></path><path d="M1881.458042 439.823066a37.220847 37.220847 0 0 0-34.759151 39.38714 37.647542 37.647542 0 0 0 8.205654 21.20341l-3.873069 16.411309a73.719597 73.719597 0 0 1-145.338547-11.356626l-3.676133-46.312712a55.109174 55.109174 0 0 0 22.975832-57.800628A54.321431 54.321431 0 0 0 1683.800244 359.932816a56.717482 56.717482 0 0 0-11.78332-1.148791v387.306878h193.653439l33.052376-234.845823a37.450606 37.450606 0 0 0-17.297519-71.553305z" fill="#8A8A8A" p-id="9256"></path><path d="M1846.633246 476.8798a37.188025 37.188025 0 1 0 37.155202-37.384961 37.286493 37.286493 0 0 0-37.155202 37.384961z m-229.561382-64.397974a55.109174 55.109174 0 1 0 27.505352-47.921021 55.174819 55.174819 0 0 0-27.505352 47.921021z" fill="#CDCDCD" p-id="9257"></path><path d="M1487.389704 451.114046c-4.431053 22.975832-23.139945 42.669402-49.988845 55.010706a36.761331 36.761331 0 0 0 22.975832 8.238476 37.319315 37.319315 0 0 0 37.25367-37.319315 37.713187 37.713187 0 0 0-10.339124-25.96269zM1687.870248 465.555997a55.470222 55.470222 0 0 0 22.549138-92.756715 31.247131 31.247131 0 0 1 1.805244 10.40477c0 26.028335-32.297455 47.1661-72.209757 47.1661a104.474389 104.474389 0 0 1-20.711071-2.00218 54.912238 54.912238 0 0 0 68.566446 37.188025zM1910.834284 451.409449c-5.087506 22.549138-24.124623 41.914482-51.006346 53.861915a36.892621 36.892621 0 0 0 52.18796-4.365408 37.450606 37.450606 0 0 0-1.181614-49.496507z" fill="#8A8A8A" p-id="9258"></path><path d="M1441.766267 460.665427c0.75492 1.312905 3.118149 1.575486 6.170652 0.656453a21.794218 21.794218 0 0 0 8.665171-5.054683c2.330406-2.231938 3.282262-4.398231 2.527341-5.711136s-3.118149-1.575486-6.170652-0.656452a22.483493 22.483493 0 0 0-8.763638 5.02186c-2.297583 2.231938-3.282262 4.398231-2.494519 5.711136z m448.061542-1.345727a15.722033 15.722033 0 0 0 8.566703 2.527341c2.199115-0.229758 3.019681-1.641131 2.100648-3.676133a15.55792 15.55792 0 0 0-6.564523-6.203474 15.722033 15.722033 0 0 0-8.566703-2.527342c-2.199115 0.229758-3.019681 1.641131-2.133471 3.676133a15.853324 15.853324 0 0 0 6.564524 6.203475z m-239.605102-85.66703c0 2.986858 9.354446 5.382909 20.875184 5.382909s20.842362-2.396051 20.842362-5.382909-9.321623-5.350087-20.842362-5.350087-20.842362 2.396051-20.842362 5.350087z" fill="#F7EAD0" p-id="9259"></path><path d="M1688.690814 654.023463h-30.918906a12.833643 12.833643 0 0 1 0-25.634464h30.918906a12.833643 12.833643 0 0 1 0 25.634464z" fill="#515151" p-id="9260"></path><path d="M1688.690814 628.323354h-16.608245v25.700109h16.608245a12.866466 12.866466 0 0 0 0-25.700109z" fill="#515151" p-id="9261"></path><path d="M1318.353228 443.105327a35.842298 35.842298 0 0 0-25.470351 58.424258l-3.741778 15.754856a71.290724 71.290724 0 0 1-140.4808-10.765818l-3.479198-44.704404a53.205462 53.205462 0 0 0 22.45067-55.798449 52.516187 52.516187 0 0 0-39.912302-39.945124 52.877236 52.877236 0 0 0-40.929803 95.645105L1083.146356 506.649913a71.290724 71.290724 0 0 1-140.480801 10.765819l-3.741778-15.754856A35.87512 35.87512 0 1 0 896.385666 512.032823l31.936406 226.049362H1303.057888l32.002052-226.049362a36.104879 36.104879 0 0 0-16.706712-68.927496z" fill="#F9C85D" p-id="9262"></path><path d="M874.919674 479.210206a35.940765 35.940765 0 1 0 35.940766-36.104879 36.104879 36.104879 0 0 0-35.940766 36.104879z" fill="#F9C85D" p-id="9263"></path><path d="M1318.353228 443.105327a35.842298 35.842298 0 0 0-25.470351 58.424258l-3.741778 15.754856a71.290724 71.290724 0 0 1-140.4808-10.765818l-3.479198-44.704404a53.205462 53.205462 0 0 0 22.45067-55.798449 52.516187 52.516187 0 0 0-39.912302-39.945124 59.08071 59.08071 0 0 0-11.487916-1.017502v373.160331h187.38432L1335.552279 512.032823a36.104879 36.104879 0 0 0 20.973652-26.71761A36.761331 36.761331 0 0 0 1318.353228 443.105327z" fill="#FFB103" p-id="9264"></path><path d="M1284.677223 479.210206a35.940765 35.940765 0 1 0 35.907943-36.104879 35.776652 35.776652 0 0 0-35.907943 36.104879z m-222.110648-62.362972a53.172639 53.172639 0 1 0 53.172639-53.172639 53.074171 53.074171 0 0 0-53.172639 53.172639z" fill="#F9C85D" p-id="9265"></path><path d="M937.052888 454.199372c-4.234118 21.991153-22.45067 40.962626-48.380537 52.975703a35.021732 35.021732 0 0 0 22.188089 7.975896 36.104879 36.104879 0 0 0 35.940765-36.104878 34.398102 34.398102 0 0 0-9.748317-24.846721z m409.724726 0.262581c-4.989038 21.728572-23.435348 40.470287-49.398038 51.958202a35.74383 35.74383 0 0 0 59.08071-27.242772 36.465927 36.465927 0 0 0-9.682672-24.71543z m-193.883198-75.688955a33.085198 33.085198 0 0 1 1.772422 9.846785c0 24.978011-31.214309 45.459324-69.616771 45.459325a102.636323 102.636323 0 0 1-19.988973-2.00218A53.139817 53.139817 0 0 0 1169.141612 416.847234a55.338932 55.338932 0 0 0-16.247196-38.074236z" fill="#FFB103" p-id="9266"></path><path d="M892.775178 463.45535c1.247259 2.00218 5.743958 1.50984 10.470415-1.24726s7.483557-6.564523 6.236297-8.501057-5.743958-1.477018-10.470415 1.247259-7.122508 6.498878-6.236297 8.501058z m433.258542-1.24726c4.759279 2.7571 9.223155 3.282262 10.470415 1.24726s-1.739599-5.743958-6.236297-8.501058c-5.973716-3.479197-11.225335-4.989038-12.702353-2.494519s1.969357 7.253798 8.468235 9.846785z m-231.79332-82.417591c0 2.724277 8.960574 5.218796 20.185909 5.218796s20.218732-2.231938 20.218732-5.218796-8.993397-5.251619-20.218732-5.251618-19.890506 2.231938-19.890505 5.251618z" fill="#F7EAD0" p-id="9267"></path><path d="M1131.691006 649.526765h-29.934227a12.242836 12.242836 0 1 1 0-24.45285h29.934227a12.242836 12.242836 0 0 1 12.242836 12.242836 12.078723 12.078723 0 0 1-12.242836 12.210014z" fill="#DA3329" p-id="9268"></path><path d="M1131.691006 624.811334h-15.951792v24.715431h15.951792a12.242836 12.242836 0 0 0 12.242836-12.210014 12.013078 12.013078 0 0 0-12.242836-12.505417z" fill="#C11B16" p-id="9269"></path></svg>