<?xml version="1.0" encoding="utf-8"?>
<svg version="1.1" xmlns:xlink="http://www.w3.org/1999/xlink" width="31px" height="31px" xmlns="http://www.w3.org/2000/svg">
  <defs>
    <path d="M 0 0  L 1024 0  L 1024 1024  L 0 1024  Z " fill-rule="evenodd" fill="black" id="path40" />
    <clipPath id="clip41">
      <use xlink:href="#path40" />
    </clipPath>
    <filter x="-50.00%" y="-50.00%" width="200.00%" height="200.00%" filterUnits="objectBoundingBox" id="filter42">
      <feColorMatrix type="matrix" values="1 0 0 0 0  0 1 0 0 0  0 0 1 0 0  0 0 0 1 0  " in="SourceGraphic" />
    </filter>
    <filter x="2454px" y="7871px" width="31px" height="31px" filterUnits="userSpaceOnUse" id="filter43">
      <feOffset dx="2" dy="2" in="SourceAlpha" result="shadowOffsetInner" />
      <feGaussianBlur stdDeviation="1" in="shadowOffsetInner" result="shadowGaussian" />
      <feComposite in2="shadowGaussian" operator="atop" in="SourceAlpha" result="shadowComposite" />
      <feColorMatrix type="matrix" values="0 0 0 0 0  0 0 0 0 0  0 0 0 0 0  0 0 0 0.6784313725490196 0  " in="shadowComposite" />
    </filter>
    <g id="widget44">
      <g transform="matrix(0.0263671875 0 0 0.0263671875 2454 7871 )" clip-path="url(#clip41)" filter="url(#filter42)">
        <path d="M828.02 196.518C743.477 112.384 631.108 66.05 511.546 66.05c-119.558 0-231.954 46.333-316.5 130.467-84.578 84.162-131.17 196.112-131.17 315.195 0 119.112 46.592 231.028 131.135 315.189 84.548 84.133 196.946 130.467 316.507 130.467 119.56 0 231.96-46.334 316.474-130.467 84.611-84.19 131.198-196.14 131.169-315.222 0.03-119.086-46.529-231-131.141-315.162z m-92.63 347.167H543.525v191.863c0 17.683-14.326 31.975-31.98 31.975-17.646 0-31.973-14.292-31.973-31.975V543.685H287.711c-17.648 0-31.972-14.324-31.972-31.972 0-17.653 14.324-31.98 31.972-31.98h191.863v-191.86c0-17.649 14.326-31.975 31.973-31.975 17.654 0 31.98 14.326 31.98 31.974v191.861h191.862c17.682 0 31.973 14.327 31.973 31.98 0 17.648-14.291 31.972-31.973 31.972z m0 0" fill="#ffffff" p-id="29205"></path>
      </g>
    </g>
  </defs>
  <g transform="matrix(1 0 0 1 -2454 -7871 )">
    <use xlink:href="#widget44" filter="url(#filter43)" />
    <use xlink:href="#widget44" />
  </g>
</svg>