<?xml version="1.0" encoding="utf-8"?>
<svg version="1.1" xmlns:xlink="http://www.w3.org/1999/xlink" width="22px" height="20px" xmlns="http://www.w3.org/2000/svg">
  <g transform="matrix(1 0 0 1 -2967 -7951 )">
    <path d="M 12.451559020044545 16.80889423076923  C 12.529138827023015 16.732772435897438  12.567928730512248 16.638621794871792  12.567928730512248 16.526442307692307  L 12.567928730512248 14.242788461538463  C 12.567928730512248 14.130608974358974  12.529138827023015 14.036458333333332  12.451559020044545 13.960336538461537  C 12.373979213066075 13.884214743589745  12.282108389012622 13.846153846153847  12.175946547884188 13.846153846153847  L 9.824053452115812 13.846153846153847  C 9.71789161098738 13.846153846153847  9.626020786933928 13.884214743589745  9.548440979955457 13.960336538461537  C 9.470861172976985 14.036458333333332  9.43207126948775 14.130608974358974  9.43207126948775 14.242788461538463  L 9.43207126948775 16.526442307692307  C 9.43207126948775 16.638621794871792  9.470861172976985 16.732772435897438  9.548440979955457 16.80889423076923  C 9.626020786933928 16.885016025641026  9.71789161098738 16.923076923076923  9.824053452115812 16.923076923076923  L 12.175946547884188 16.923076923076923  C 12.282108389012622 16.923076923076923  12.373979213066075 16.885016025641026  12.451559020044545 16.80889423076923  Z M 12.414810690423161 12.229567307692308  C 12.492390497401635 12.177483974358974  12.535263548626578 12.111378205128204  12.543429844097995 12.03125  L 12.763919821826281 6.514423076923077  C 12.763919821826281 6.418269230769232  12.723088344469192 6.342147435897434  12.64142538975501 6.286057692307692  C 12.535263548626581 6.197916666666665  12.437268002969564 6.153846153846154  12.347438752783965 6.153846153846154  L 9.652561247216035 6.153846153846154  C 9.56273199703044 6.153846153846154  9.464736451373422 6.197916666666665  9.35857461024499 6.286057692307692  C 9.27691165553081 6.342147435897434  9.236080178173719 6.426282051282048  9.236080178173719 6.538461538461537  L 9.444320712694877 12.03125  C 9.444320712694877 12.111378205128204  9.485152190051968 12.177483974358974  9.566815144766148 12.229567307692308  C 9.648478099480329 12.281650641025639  9.746473645137343 12.307692307692308  9.860801781737193 12.307692307692308  L 12.126948775055679 12.307692307692308  C 12.241276911655532 12.307692307692308  12.337230883444692 12.281650641025639  12.414810690423161 12.229567307692308  Z M 11.796213808463252 0.2163461538461542  C 12.041202672605792 0.3605769230769229  12.233110616184115 0.5568910256410242  12.371937639198219 0.8052884615384626  L 21.779510022271715 17.728365384615387  C 22.065330363771345 18.233173076923077  22.057164068299926 18.73798076923077  21.755011135857462 19.242788461538463  C 21.616184112843357 19.475160256410255  21.42631774313289 19.65945512820513  21.18541202672606 19.795673076923077  C 20.94450631031923 19.931891025641026  20.68522642910171 20  20.407572383073497 20  L 1.5924276169265035 20  C 1.3147735708982926 20  1.0554936896807723 19.931891025641026  0.8145879732739422 19.795673076923077  C 0.5736822568671122 19.65945512820513  0.38381588715664444 19.475160256410255  0.24498886414253898 19.242788461538463  C -0.05716406829992577 18.73798076923077  -0.06533036377134374 18.233173076923077  0.2204899777282851 17.728365384615387  L 9.628062360801781 0.8052884615384626  C 9.766889383815888 0.5568910256410242  9.95879732739421 0.3605769230769229  10.203786191536748 0.2163461538461542  C 10.448775055679288 0.07211538461538547  10.714179658500372 0  11 0  C 11.28582034149963 0  11.551224944320712 0.07211538461538547  11.796213808463252 0.2163461538461542  Z " fill-rule="nonzero" fill="#fdefd6" stroke="none" transform="matrix(1 0 0 1 2967 7951 )" />
  </g>
</svg>