<?xml version="1.0" encoding="utf-8"?>
<svg version="1.1" xmlns:xlink="http://www.w3.org/1999/xlink" width="13px" height="22px" xmlns="http://www.w3.org/2000/svg">
  <g transform="matrix(1 0 0 1 -5564 -8093 )">
    <path d="M 12.776632302405497 10.492985971943888  C 12.925544100801835 10.639946559786239  13 10.808951235804942  13 11  C 13 11.191048764195056  12.925544100801835 11.36005344021376  12.776632302405497 11.507014028056112  L 2.3676975945017182 21.779559118236474  C 2.218785796105384 21.926519706078825  2.047537227949599 22  1.8539518900343641 22  C 1.6603665521191298 22  1.4891179839633448 21.926519706078825  1.3402061855670102 21.779559118236474  L 0.22336769759450173 20.67735470941884  C 0.0744558991981673 20.530394121576485  0 20.361389445557784  0 20.170340681362724  C 0 19.979291917167668  0.0744558991981673 19.810287241148966  0.22336769759450173 19.663326653306612  L 9.00171821305842 11  L 0.22336769759450173 2.3366733466933867  C 0.0744558991981673 2.1897127588510346  0 2.0207080828323303  0 1.8296593186372752  C 0 1.638610554442215  0.0744558991981673 1.469605878423511  0.22336769759450173 1.3226452905811612  L 1.3402061855670102 0.22044088176352727  C 1.4891179839633448 0.07348029392117494  1.6603665521191298 0  1.8539518900343641 0  C 2.047537227949599 0  2.218785796105384 0.07348029392117494  2.3676975945017182 0.22044088176352727  L 12.776632302405497 10.492985971943888  Z " fill-rule="nonzero" fill="#fdefd6" stroke="none" transform="matrix(1 0 0 1 5564 8093 )" />
  </g>
</svg>